  0
SECTION
  2
HEADER
  9
$LIMMIN
 10
0
 20
0
  9
$LIMMAX
 10
297
 20
210
  9
$EXTMIN
 10
95.375
 20
110.75
  9
$EXTMAX
 10
179.8125
 20
209.250732422
  0
ENDSEC
  0
SECTION
  2
TABLES
  0
TABLE
  2
LTYPE
 70
9
  0
LTYPE
  2
AUSGEZOGEN
 70
64
  3
Ausgezogene Linie
 72
65
 73
0
 40
0.0
  0
LTYPE
  2
GESTRICHELT
 70
0
  3
__ __ __ __ __ __ __ __ __ __ __ __ __ __ __
 72
65
 73
2
 40
3
 49
2
 49
-1
  0
LTYPE
  2
STRICHPUNKTIERT
 70
0
  3
__ . __ . __ . __ . __ . __ . __ . __ . __ .
 72
65
 73
4
 40
8
 49
4
 49
-2
 49
0
 49
-2
  0
ENDTAB
  0
TABLE
  2
LAYER
 70
10
  0
LAYER
  2
1
 70
0
 62
7
  6
AUSGEZOGEN
  0
LAYER
  2
LINES
 70
0
 62
7
  6
AUSGEZOGEN
  0
LAYER
  2
CONNECTIONS
 70
0
 62
-7
  6
AUSGEZOGEN
  0
LAYER
  2
TEXT
 70
0
 62
7
  6
AUSGEZOGEN
  0
LAYER
  2
TCONNECTIONS
 70
0
 62
7
  6
AUSGEZOGEN
  0
ENDTAB
  0
ENDSEC
  0
SECTION
  2
BLOCKS
  0
BLOCK
  8
0
  2
B1
 70
0
 10
0
 20
0
  0
LINE
  8
LINES
 62
7
 10
139.25
 20
34.0007324219
 11
139.25
 21
34.0007324219
  0
LINE
  8
LINES
 62
7
 10
139.25
 20
34.0007324219
 11
139.25
 21
40.0007324219
  0
LINE
  8
LINES
 62
7
 10
139.25
 20
40.0007324219
 11
139.25
 21
40.0007324219
  0
LINE
  8
LINES
 62
7
 10
103.25
 20
26.5007324219
 11
103.25
 21
25.0007324219
  0
LINE
  8
LINES
 62
7
 10
103.25
 20
25.0007324219
 11
103.25
 21
25.0007324219
  0
LINE
  8
LINES
 62
7
 10
103.25
 20
25.0007324219
 11
103.25
 21
23.5007324219
  0
LINE
  8
LINES
 62
7
 10
103.25
 20
43.0007324219
 11
103.25
 21
40.0007324219
  0
LINE
  8
LINES
 62
7
 10
103.25
 20
40.0007324219
 11
103.25
 21
40.0007324219
  0
LINE
  8
LINES
 62
7
 10
103.25
 20
40.0007324219
 11
103.25
 21
37.0007324219
  0
LINE
  8
LINES
 62
7
 10
103.25
 20
37.0007324219
 11
103.25
 21
37.0007324219
  0
LINE
  8
LINES
 62
7
 10
139.25
 20
56.5007324219
 11
139.25
 21
62.5007324219
  0
LINE
  8
LINES
 62
7
 10
139.25
 20
62.5007324219
 11
139.25
 21
62.5007324219
  0
LINE
  8
LINES
 62
7
 10
142.25
 20
56.5007324219
 11
142.25
 21
58.0007324219
  0
LINE
  8
LINES
 62
7
 10
142.25
 20
58.0007324219
 11
161.75
 21
58.0007324219
  0
LINE
  8
LINES
 62
7
 10
161.75
 20
58.0007324219
 11
161.75
 21
62.5007324219
  0
LINE
  8
LINES
 62
7
 10
139.25
 20
47.5007324219
 11
139.25
 21
43.0007324219
  0
LINE
  8
LINES
 62
7
 10
139.25
 20
43.0007324219
 11
139.25
 21
43.0007324219
  0
LINE
  8
LINES
 62
7
 10
139.25
 20
43.0007324219
 11
139.25
 21
40.0007324219
  0
LINE
  8
LINES
 62
7
 10
142.25
 20
47.5007324219
 11
142.25
 21
47.5007324219
  0
LINE
  8
LINES
 62
7
 10
142.25
 20
47.5007324219
 11
142.25
 21
47.5007324219
  0
LINE
  8
LINES
 62
7
 10
142.25
 20
47.5007324219
 11
142.25
 21
46.0007324219
  0
LINE
  8
LINES
 62
7
 10
103.25
 20
40.0007324219
 11
139.25
 21
40.0007324219
  0
LINE
  8
LINES
 62
7
 10
103.25
 20
40.0007324219
 11
103.25
 21
40.0007324219
  0
LINE
  8
LINES
 62
7
 10
151.25
 20
88.0007324219
 11
151.25
 21
85.0007324219
  0
LINE
  8
LINES
 62
7
 10
151.25
 20
85.0007324219
 11
151.25
 21
85.0007324219
  0
LINE
  8
LINES
 62
7
 10
151.25
 20
85.0007324219
 11
151.25
 21
85.0007324219
  0
LINE
  8
LINES
 62
7
 10
134.75
 20
82.0007324219
 11
134.75
 21
77.5007324219
  0
LINE
  8
LINES
 62
7
 10
134.75
 20
77.5007324219
 11
139.25
 21
77.5007324219
  0
LINE
  8
LINES
 62
7
 10
139.25
 20
77.5007324219
 11
139.25
 21
77.5007324219
  0
LINE
  8
LINES
 62
7
 10
139.25
 20
77.5007324219
 11
139.25
 21
88.0007324219
  0
LINE
  8
LINES
 62
7
 10
139.25
 20
88.0007324219
 11
139.25
 21
88.0007324219
  0
LINE
  8
LINES
 62
7
 10
163.25
 20
86.5007324219
 11
163.25
 21
86.5007324219
  0
LINE
  8
LINES
 62
7
 10
163.25
 20
86.5007324219
 11
163.25
 21
85.0007324219
  0
LINE
  8
LINES
 62
7
 10
151.25
 20
85.0007324219
 11
163.25
 21
85.0007324219
  0
LINE
  8
LINES
 62
7
 10
151.25
 20
85.0007324219
 11
151.25
 21
80.5007324219
  0
LINE
  8
LINES
 62
7
 10
151.25
 20
80.5007324219
 11
161.75
 21
80.5007324219
  0
LINE
  8
LINES
 62
7
 10
161.75
 20
80.5007324219
 11
161.75
 21
80.5007324219
  0
LINE
  8
LINES
 62
7
 10
158.75
 20
62.5007324219
 11
160.25
 21
62.5007324219
  0
LINE
  8
LINES
 62
7
 10
160.25
 20
62.5007324219
 11
160.25
 21
62.5007324219
  0
LINE
  8
LINES
 62
7
 10
160.25
 20
62.5007324219
 11
161.75
 21
62.5007324219
  0
LINE
  8
LINES
 62
7
 10
140.75
 20
62.5007324219
 11
140.75
 21
62.5007324219
  0
LINE
  8
LINES
 62
7
 10
139.25
 20
62.5007324219
 11
140.75
 21
62.5007324219
  0
LINE
  8
LINES
 62
7
 10
139.25
 20
62.5007324219
 11
139.25
 21
62.5007324219
  0
LINE
  8
LINES
 62
7
 10
151.25
 20
62.5007324219
 11
151.25
 21
62.5007324219
  0
LINE
  8
LINES
 62
7
 10
151.25
 20
62.5007324219
 11
152.75
 21
62.5007324219
  0
LINE
  8
LINES
 62
7
 10
152.75
 20
62.5007324219
 11
152.75
 21
62.5007324219
  0
LINE
  8
LINES
 62
7
 10
139.25
 20
62.5007324219
 11
139.25
 21
76.0007324219
  0
LINE
  8
LINES
 62
7
 10
139.25
 20
76.0007324219
 11
139.25
 21
76.0007324219
  0
LINE
  8
LINES
 62
7
 10
139.25
 20
76.0007324219
 11
139.25
 21
77.5007324219
  0
LINE
  8
LINES
 62
7
 10
161.75
 20
62.5007324219
 11
161.75
 21
67.0007324219
  0
LINE
  8
LINES
 62
7
 10
161.75
 20
67.0007324219
 11
161.75
 21
67.0007324219
  0
LINE
  8
LINES
 62
7
 10
161.75
 20
62.5007324219
 11
175.25
 21
62.5007324219
  0
LINE
  8
LINES
 62
7
 10
175.25
 20
62.5007324219
 11
175.25
 21
68.5007324219
  0
LINE
  8
LINES
 62
7
 10
175.25
 20
68.5007324219
 11
175.25
 21
68.5007324219
  0
LINE
  8
LINES
 62
7
 10
175.25
 20
74.5007324219
 11
175.25
 21
74.5007324219
  0
LINE
  8
LINES
 62
7
 10
175.25
 20
74.5007324219
 11
175.25
 21
80.5007324219
  0
LINE
  8
LINES
 62
7
 10
161.75
 20
80.5007324219
 11
175.25
 21
80.5007324219
  0
LINE
  8
LINES
 62
7
 10
161.75
 20
80.5007324219
 11
161.75
 21
77.5007324219
  0
LINE
  8
LINES
 62
7
 10
161.75
 20
77.5007324219
 11
161.75
 21
77.5007324219
  0
ENDBLK
  8
0
  0
BLOCK
  8
0
  2
B2
 70
0
 10
0
 20
0
  0
LINE
  8
1
 62
7
  6
STRICHPUNKTIERT
 10
0
 20
0.000732421875
 11
40.5
 21
0.000732421875
  0
LINE
  8
1
 62
7
  6
STRICHPUNKTIERT
 10
0
 20
0.000732421875
 11
40.5
 21
0.000732421875
  0
LINE
  8
1
 62
7
 10
3.60009765625
 20
2.02587890625
 11
37.5749511719
 21
2.02587890625
  0
LINE
  8
1
 62
7
  6
STRICHPUNKTIERT
 10
0
 20
28.80078125
 11
40.5
 21
28.80078125
  0
LINE
  8
1
 62
7
  6
STRICHPUNKTIERT
 10
0
 20
28.80078125
 11
40.5
 21
28.80078125
  0
CIRCLE
  8
1
 62
7
 10
31.1398925781
 20
12.9609375
 40
2.96875
  0
LINE
  8
1
 62
7
  6
STRICHPUNKTIERT
 10
0
 20
28.80078125
 11
0
 21
0.000732421875
  0
LINE
  8
1
 62
7
  6
STRICHPUNKTIERT
 10
0
 20
28.80078125
 11
0
 21
0.000732421875
  0
LINE
  8
1
 62
7
 10
6.75
 20
22.5007324219
 11
6.75
 21
21.7507324219
  0
LINE
  8
1
 62
7
 10
22.5
 20
31.5007324219
 11
22.5
 21
15.9758300781
  0
LINE
  8
1
 62
7
  6
GESTRICHELT
 10
2.25
 20
17.2507324219
 11
2.25
 21
12.7507324219
  0
LINE
  8
1
 62
7
  6
GESTRICHELT
 10
2.25
 20
17.2507324219
 11
2.25
 21
12.7507324219
  0
LINE
  8
1
 62
7
  6
GESTRICHELT
 10
5.25
 20
17.2507324219
 11
6.75
 21
15.7507324219
  0
LINE
  8
1
 62
7
  6
GESTRICHELT
 10
5.25
 20
17.2507324219
 11
6.75
 21
15.7507324219
  0
LINE
  8
1
 62
7
 10
3.75
 20
9.75073242188
 11
9.75
 21
9.75073242188
  0
LINE
  8
1
 62
7
 10
3.75
 20
15.7507324219
 11
9.75
 21
15.7507324219
  0
LINE
  8
1
 62
7
 10
6.75
 20
9.75073242188
 11
6.75
 21
8.25073242188
  0
LINE
  8
1
 62
7
 10
3.60009765625
 20
4.27587890625
 11
3.60009765625
 21
2.02587890625
  0
LINE
  8
1
 62
7
 10
6.75
 20
8.25073242188
 11
6.75
 21
2.12329101563
  0
LINE
  8
1
 62
7
 10
3.75
 20
15.7507324219
 11
3.75
 21
9.75073242188
  0
LINE
  8
1
 62
7
  6
GESTRICHELT
 10
2.25
 20
12.7507324219
 11
3.75
 21
12.7507324219
  0
LINE
  8
1
 62
7
  6
GESTRICHELT
 10
2.25
 20
12.7507324219
 11
3.75
 21
12.7507324219
  0
LINE
  8
1
 62
7
 10
5.25
 20
15.7507324219
 11
5.25
 21
9.75073242188
  0
LINE
  8
1
 62
7
 10
4.875
 20
11.2507324219
 11
5.625
 21
11.2507324219
  0
LINE
  8
1
 62
7
 10
5.625
 20
11.2507324219
 11
5.25
 21
9.75073242188
  0
LINE
  8
1
 62
7
 10
4.875
 20
11.2507324219
 11
5.25
 21
9.75073242188
  0
LINE
  8
1
 62
7
 10
4.875
 20
11.2507324219
 11
5.25
 21
9.75073242188
  0
LINE
  8
1
 62
7
 10
5.625
 20
11.2507324219
 11
5.25
 21
9.75073242188
  0
SOLID
  8
1
 62
7
 10
5.25
 20
9.75073242188
 11
5.625
 21
11.2507324219
 12
5.25
 22
9.75073242188
 13
4.875
 23
11.2507324219
  0
LINE
  8
1
 62
7
 10
4.875
 20
11.2507324219
 11
5.625
 21
11.2507324219
  0
LINE
  8
1
 62
7
 10
14.25
 20
15.3488769531
 11
11.25
 21
10.1528320313
  0
LINE
  8
1
 62
7
 10
13.125
 20
14.2507324219
 11
12.375
 21
11.2507324219
  0
LINE
  8
1
 62
7
 10
11.625
 20
14.2507324219
 11
12.375
 21
11.2507324219
  0
LINE
  8
1
 62
7
 10
10.125
 20
14.2507324219
 11
10.875
 21
11.2507324219
  0
LINE
  8
1
 62
7
 10
11.625
 20
14.2507324219
 11
10.875
 21
11.2507324219
  0
LINE
  8
1
 62
7
 10
9.75
 20
15.7507324219
 11
9.75
 21
9.75073242188
  0
LINE
  8
1
 62
7
 10
10.125
 20
14.2507324219
 11
9.75
 21
12.7507324219
  0
LINE
  8
1
 62
7
 10
14.625
 20
14.2507324219
 11
13.875
 21
11.2507324219
  0
LINE
  8
1
 62
7
 10
13.125
 20
14.2507324219
 11
13.875
 21
11.2507324219
  0
LINE
  8
1
 62
7
 10
14.625
 20
14.2507324219
 11
15
 21
12.7507324219
  0
LINE
  8
1
 62
7
 10
13.3903808594
 20
14.4597167969
 11
13.9099121094
 21
14.1596679688
  0
SOLID
  8
1
 62
7
 10
14.25
 20
15.3488769531
 11
13.6501464844
 21
14.3095703125
 12
14.25
 22
15.3488769531
 13
13.9099121094
 23
14.1596679688
  0
LINE
  8
1
 62
7
 10
14.25
 20
15.3488769531
 11
13.3903808594
 21
14.4597167969
  0
SOLID
  8
1
 62
7
 10
14.25
 20
15.3488769531
 11
13.3903808594
 21
14.4597167969
 12
14.25
 22
15.3488769531
 13
13.6501464844
 23
14.3095703125
  0
LINE
  8
1
 62
7
 10
14.25
 20
15.3488769531
 11
13.9099121094
 21
14.1596679688
  0
LINE
  8
1
 62
7
  6
GESTRICHELT
 10
2.25
 20
17.2507324219
 11
5.25
 21
17.2507324219
  0
LINE
  8
1
 62
7
  6
GESTRICHELT
 10
2.25
 20
17.2507324219
 11
5.25
 21
17.2507324219
  0
LINE
  8
1
 62
7
 10
6.75
 20
21.7507324219
 11
6.75
 21
18.7507324219
  0
LINE
  8
1
 62
7
 10
6.75
 20
18.7507324219
 11
22.5
 21
18.7507324219
  0
LINE
  8
1
 62
7
 10
25.3798828125
 20
12.384765625
 11
26.67578125
 21
12.384765625
  0
LINE
  8
1
 62
7
 10
25.3798828125
 20
13.5368652344
 11
26.67578125
 21
13.5368652344
  0
LINE
  8
1
 62
7
 10
22.5
 20
8.64086914063
 11
22.5
 21
2.16088867188
  0
CIRCLE
  8
1
 62
7
 10
22.5
 20
12.9609375
 40
2.96875
  0
LINE
  8
1
 62
7
 10
22.5
 20
10.0087890625
 11
22.5
 21
8.64086914063
  0
LINE
  8
1
 62
7
 10
22.5
 20
15.9128417969
 11
21.6362304688
 21
14.6169433594
  0
LINE
  8
1
 62
7
 10
22.5
 20
15.9128417969
 11
23.3637695313
 21
14.6169433594
  0
LINE
  8
1
 62
7
 10
21.6362304688
 20
14.6169433594
 11
23.3637695313
 21
14.6169433594
  0
SOLID
  8
1
 62
7
 10
22.5
 20
15.9128417969
 11
21.6362304688
 21
14.6169433594
 12
22.5
 22
15.9128417969
 13
23.3637695313
 23
14.6169433594
  0
LINE
  8
1
 62
7
 10
26.67578125
 20
13.6809082031
 11
26.67578125
 21
12.2409667969
  0
LINE
  8
1
 62
7
 10
27.1079101563
 20
13.6809082031
 11
27.1079101563
 21
12.2409667969
  0
LINE
  8
1
 62
7
 10
27.1079101563
 20
12.384765625
 11
28.259765625
 21
12.384765625
  0
LINE
  8
1
 62
7
 10
27.1079101563
 20
13.5368652344
 11
28.259765625
 21
13.5368652344
  0
LINE
  8
1
 62
7
 10
6.75
 20
18.7507324219
 11
6.75
 21
15.7507324219
  0
POLYLINE
  8
1
 62
7
 70
1
 66
1
 40
0.1875
 41
0.1875
  0
VERTEX
  8
1
 10
6.65625
 20
18.7507324219
 42
1
  0
VERTEX
  8
1
 10
6.84375
 20
18.7507324219
 42
1
  0
SEQEND
  8
1
  0
POLYLINE
  8
1
 62
7
 70
1
 66
1
 40
0.1875
 41
0.1875
  0
VERTEX
  8
1
 10
22.40625
 20
18.7507324219
 42
1
  0
VERTEX
  8
1
 10
22.59375
 20
18.7507324219
 42
1
  0
SEQEND
  8
1
  0
CIRCLE
  8
1
 62
7
 10
6.75
 20
24.7507324219
 40
2.25
  0
LINE
  8
1
 62
7
 10
5.1591796875
 20
26.341796875
 11
8.34106445313
 21
23.1599121094
  0
SOLID
  8
1
 62
7
 10
5.1591796875
 20
26.341796875
 11
5.58325195313
 21
25.4934082031
 12
5.1591796875
 22
26.341796875
 13
5.79565429688
 23
25.7053222656
  0
LINE
  8
1
 62
7
 10
5.1591796875
 20
26.341796875
 11
5.58325195313
 21
25.4934082031
  0
LINE
  8
1
 62
7
 10
6.00756835938
 20
25.9177246094
 11
5.58325195313
 21
25.4934082031
  0
SOLID
  8
1
 62
7
 10
5.1591796875
 20
26.341796875
 11
5.79565429688
 21
25.7053222656
 12
5.1591796875
 22
26.341796875
 13
6.00756835938
 23
25.9177246094
  0
LINE
  8
1
 62
7
 10
5.1591796875
 20
26.341796875
 11
6.00756835938
 21
25.9177246094
  0
LINE
  8
1
 62
7
  6
STRICHPUNKTIERT
 10
40.5
 20
28.80078125
 11
40.5
 21
0.000732421875
  0
LINE
  8
1
 62
7
  6
STRICHPUNKTIERT
 10
40.5
 20
28.80078125
 11
40.5
 21
0.000732421875
  0
LINE
  8
1
 62
7
 10
36
 20
31.5007324219
 11
36
 21
2.02587890625
  0
LINE
  8
1
 62
7
 10
36
 20
18.0007324219
 11
45
 21
18.0007324219
  0
LINE
  8
1
 62
7
 10
37.5749511719
 20
4.27587890625
 11
37.5749511719
 21
2.02587890625
  0
LINE
  8
1
 62
7
 10
30.375
 20
14.2507324219
 11
30.375
 21
12.0007324219
  0
LINE
  8
1
 62
7
 10
31.875
 20
14.2507324219
 11
31.125
 21
12.7507324219
  0
LINE
  8
1
 62
7
 10
31.875
 20
14.2507324219
 11
31.875
 21
12.0007324219
  0
LINE
  8
1
 62
7
 10
30.375
 20
14.2507324219
 11
31.125
 21
12.7507324219
  0
POLYLINE
  8
1
 62
7
 70
1
 66
1
 40
0.1875
 41
0.1875
  0
VERTEX
  8
1
 10
35.90625
 20
18.0007324219
 42
1
  0
VERTEX
  8
1
 10
36.09375
 20
18.0007324219
 42
1
  0
SEQEND
  8
1
  0
TEXT
  8
1
 62
7
 40
1.5
  1
P
  7
STANDARD
 72
1
 10
19.5
 20
30.6435546875
 11
19.5
 21
30.6435546875
  0
TEXT
  8
1
 62
7
 40
1.5
  1
T
  7
STANDARD
 72
1
 10
39.5
 20
30.6435546875
 11
39.5
 21
30.6435546875
  0
TEXT
  8
1
 62
7
 40
1.5
  1
Ts
  7
STANDARD
 72
1
 10
45
 20
13.8935546875
 11
45
 21
13.8935546875
  0
ENDBLK
  8
0
  0
BLOCK
  8
0
  2
B3
 70
0
 10
0
 20
0
  0
LINE
  8
1
 62
7
 10
11.9997558594
 20
7.09814453125
 11
8.99975585938
 21
1.90209960938
  0
LINE
  8
1
 62
7
 10
9.37475585938
 20
6
 11
10.1247558594
 21
3
  0
LINE
  8
1
 62
7
 10
1.49975585938
 20
7.5
 11
1.49975585938
 21
1.5
  0
LINE
  8
1
 62
7
 10
2.99975585938
 20
7.5
 11
2.99975585938
 21
1.5
  0
LINE
  8
1
 62
7
 10
7.87475585938
 20
6
 11
8.62475585938
 21
3
  0
LINE
  8
1
 62
7
 10
9.37475585938
 20
6
 11
8.62475585938
 21
3
  0
LINE
  8
1
 62
7
 10
7.49975585938
 20
7.5
 11
7.49975585938
 21
1.5
  0
LINE
  8
1
 62
7
 10
2.62475585938
 20
3
 11
3.37475585938
 21
3
  0
LINE
  8
1
 62
7
 10
3.37475585938
 20
3
 11
2.99975585938
 21
1.5
  0
LINE
  8
1
 62
7
 10
2.62475585938
 20
3
 11
2.99975585938
 21
1.5
  0
LINE
  8
1
 62
7
 10
2.62475585938
 20
3
 11
2.99975585938
 21
1.5
  0
LINE
  8
1
 62
7
 10
3.37475585938
 20
3
 11
2.99975585938
 21
1.5
  0
SOLID
  8
1
 62
7
 10
2.99975585938
 20
1.5
 11
3.37475585938
 21
3
 12
2.99975585938
 22
1.5
 13
2.62475585938
 23
3
  0
LINE
  8
1
 62
7
 10
2.62475585938
 20
3
 11
3.37475585938
 21
3
  0
LINE
  8
1
 62
7
 10
1.49975585938
 20
7.5
 11
7.49975585938
 21
7.5
  0
LINE
  8
1
 62
7
  6
GESTRICHELT
 10
-0.000244140625
 20
9
 11
2.99975585938
 21
9
  0
LINE
  8
1
 62
7
  6
GESTRICHELT
 10
-0.000244140625
 20
9
 11
2.99975585938
 21
9
  0
LINE
  8
1
 62
7
  6
GESTRICHELT
 10
-0.000244140625
 20
9
 11
-0.000244140625
 21
4.5
  0
LINE
  8
1
 62
7
  6
GESTRICHELT
 10
-0.000244140625
 20
9
 11
-0.000244140625
 21
4.5
  0
LINE
  8
1
 62
7
  6
GESTRICHELT
 10
-0.000244140625
 20
4.5
 11
1.49975585938
 21
4.5
  0
LINE
  8
1
 62
7
  6
GESTRICHELT
 10
-0.000244140625
 20
4.5
 11
1.49975585938
 21
4.5
  0
LINE
  8
1
 62
7
 10
4.49975585938
 20
10.5
 11
4.49975585938
 21
7.5
  0
LINE
  8
1
 62
7
  6
GESTRICHELT
 10
2.99975585938
 20
9
 11
4.49975585938
 21
7.5
  0
LINE
  8
1
 62
7
  6
GESTRICHELT
 10
2.99975585938
 20
9
 11
4.49975585938
 21
7.5
  0
LINE
  8
1
 62
7
 10
7.87475585938
 20
6
 11
7.49975585938
 21
4.5
  0
LINE
  8
1
 62
7
 10
12.3747558594
 20
6
 11
11.6247558594
 21
3
  0
LINE
  8
1
 62
7
 10
10.8747558594
 20
6
 11
11.6247558594
 21
3
  0
LINE
  8
1
 62
7
 10
10.8747558594
 20
6
 11
10.1247558594
 21
3
  0
LINE
  8
1
 62
7
 10
12.3747558594
 20
6
 11
12.7497558594
 21
4.5
  0
LINE
  8
1
 62
7
 10
11.1398925781
 20
6.208984375
 11
11.6594238281
 21
5.90893554688
  0
SOLID
  8
1
 62
7
 10
11.9997558594
 20
7.09814453125
 11
11.3996582031
 21
6.05908203125
 12
11.9997558594
 22
7.09814453125
 13
11.6594238281
 23
5.90893554688
  0
LINE
  8
1
 62
7
 10
11.9997558594
 20
7.09814453125
 11
11.1398925781
 21
6.208984375
  0
SOLID
  8
1
 62
7
 10
11.9997558594
 20
7.09814453125
 11
11.1398925781
 21
6.208984375
 12
11.9997558594
 22
7.09814453125
 13
11.3996582031
 23
6.05908203125
  0
LINE
  8
1
 62
7
 10
11.9997558594
 20
7.09814453125
 11
11.6594238281
 21
5.90893554688
  0
LINE
  8
1
 62
7
 10
1.49975585938
 20
1.5
 11
7.49975585938
 21
1.5
  0
LINE
  8
1
 62
7
 10
4.49975585938
 20
1.5
 11
4.49975585938
 21
0
  0
TEXT
  8
1
 62
7
 40
1.5
  1
P
  7
STANDARD
 72
1
 10
7.24975585938
 20
8.89282226563
 11
7.24975585938
 21
8.89282226563
  0
TEXT
  8
1
 62
7
 40
1.5
  1
T
  7
STANDARD
 72
1
 10
6.99975585938
 20
-1.60693359375
 11
6.99975585938
 21
-1.60693359375
  0
ENDBLK
  8
0
  0
BLOCK
  8
0
  2
B4
 70
0
 10
0
 20
0
  0
LINE
  8
1
 62
7
 10
1.99975585938
 20
3.5
 11
1.99975585938
 21
0.5
  0
LINE
  8
1
 62
7
 10
0.499755859375
 20
0.5
 11
3.49975585938
 21
0.5
  0
LINE
  8
1
 62
7
 10
0.499755859375
 20
2
 11
0.499755859375
 21
0.5
  0
LINE
  8
1
 62
7
 10
3.49975585938
 20
2
 11
3.49975585938
 21
0.5
  0
ENDBLK
  8
0
  0
BLOCK
  8
0
  2
B5
 70
0
 10
0
 20
0
  0
LINE
  8
1
 62
7
 10
0.658935546875
 20
4.5908203125
 11
3.84057617188
 21
1.40893554688
  0
CIRCLE
  8
1
 62
7
 10
2.24975585938
 20
3
 40
2.25
  0
LINE
  8
1
 62
7
 10
2.24975585938
 20
0.75
 11
2.24975585938
 21
0
  0
SOLID
  8
1
 62
7
 10
0.658935546875
 20
4.5908203125
 11
1.29541015625
 21
3.95434570313
 12
0.658935546875
 22
4.5908203125
 13
1.50732421875
 23
4.16674804688
  0
SOLID
  8
1
 62
7
 10
0.658935546875
 20
4.5908203125
 11
1.0830078125
 21
3.75
 12
0.658935546875
 22
4.5908203125
 13
1.29541015625
 23
3.95434570313
  0
LINE
  8
1
 62
7
 10
0.658935546875
 20
4.5908203125
 11
1.0830078125
 21
3.75
  0
LINE
  8
1
 62
7
 10
0.658935546875
 20
4.5908203125
 11
1.50732421875
 21
4.16674804688
  0
LINE
  8
1
 62
7
 10
1.50732421875
 20
4.16674804688
 11
1.0830078125
 21
3.75
  0
ENDBLK
  8
0
  0
BLOCK
  8
0
  2
B6
 70
0
 10
0
 20
0
  0
LINE
  8
1
 62
7
 10
1.99975585938
 20
3.5
 11
1.99975585938
 21
0.5
  0
LINE
  8
1
 62
7
 10
0.499755859375
 20
0.5
 11
3.49975585938
 21
0.5
  0
LINE
  8
1
 62
7
 10
0.499755859375
 20
2
 11
0.499755859375
 21
0.5
  0
LINE
  8
1
 62
7
 10
3.49975585938
 20
2
 11
3.49975585938
 21
0.5
  0
ENDBLK
  8
0
  0
BLOCK
  8
0
  2
B7
 70
0
 10
0
 20
0
  0
POLYLINE
  8
TCONNECTIONS
 62
7
 70
1
 66
1
 40
0.375
 41
0.375
  0
VERTEX
  8
1
 10
1.3125
 20
1.5
 42
1
  0
VERTEX
  8
1
 10
1.6875
 20
1.5
 42
1
  0
SEQEND
  8
1
  0
ENDBLK
  8
0
  0
BLOCK
  8
0
  2
B8
 70
0
 10
0
 20
0
  0
LINE
  8
1
 62
7
 10
2
 20
3.75
 11
2.5
 21
2.75
  0
LINE
  8
1
 62
7
 10
2.5
 20
2.75
 11
3
 21
3.75
  0
LINE
  8
1
 62
7
 10
4.5
 20
3.75
 11
3
 21
3.75
  0
CIRCLE
  8
1
 62
7
 10
1.5
 20
5
 40
0.5
  0
LINE
  8
1
 62
7
 10
2
 20
3.75
 11
0.964111328125
 21
3.75
  0
LINE
  8
1
 62
7
 10
4.5
 20
2.25
 11
0.3212890625
 21
2.25
  0
LINE
  8
1
 62
7
 10
0
 20
1.5
 11
1.30297851563
 21
4.54052734375
  0
LINE
  8
1
 62
7
 10
4.5
 20
1.5
 11
10.5
 21
1.5
  0
LINE
  8
1
 62
7
 10
10.5
 20
7.5
 11
4.5
 21
7.5
  0
LINE
  8
1
 62
7
 10
4.5
 20
7.5
 11
4.5
 21
1.5
  0
SOLID
  8
1
 62
7
 10
6
 20
7.5
 11
5.5
 21
5.5
 12
6
 22
7.5
 13
6.5
 23
5.5
  0
SOLID
  8
1
 62
7
 10
9
 20
1.5
 11
9.5
 21
3.5
 12
9
 22
1.5
 13
8.5
 23
3.5
  0
LINE
  8
1
 62
7
 10
10.5
 20
1.5
 11
10.5
 21
7.5
  0
LINE
  8
1
 62
7
 10
6
 20
7.5
 11
6
 21
1.5
  0
LINE
  8
1
 62
7
 10
9
 20
7.5
 11
9
 21
1.5
  0
LINE
  8
1
 62
7
 10
10.5
 20
1.5
 11
16.5
 21
1.5
  0
LINE
  8
1
 62
7
 10
16.5
 20
1.5
 11
16.5
 21
7.5
  0
LINE
  8
1
 62
7
 10
16.5
 20
7.5
 11
10.5
 21
7.5
  0
LINE
  8
1
 62
7
 10
10.5
 20
7.5
 11
10.5
 21
1.5
  0
LINE
  8
1
 62
7
 10
11.5
 20
6
 11
12.5
 21
6
  0
LINE
  8
1
 62
7
 10
14.5
 20
6
 11
15.5
 21
6
  0
LINE
  8
1
 62
7
 10
11.5
 20
3
 11
12.5
 21
3
  0
LINE
  8
1
 62
7
 10
14.5
 20
3
 11
15.5
 21
3
  0
LINE
  8
1
 62
7
 10
12
 20
7.5
 11
12
 21
6
  0
LINE
  8
1
 62
7
 10
15
 20
7.5
 11
15
 21
6
  0
LINE
  8
1
 62
7
 10
12
 20
3
 11
12
 21
1.5
  0
LINE
  8
1
 62
7
 10
15
 20
3
 11
15
 21
1.5
  0
LINE
  8
1
 62
7
 10
21
 20
1.5
 11
18
 21
7.5
  0
SOLID
  8
1
 62
7
 10
21
 20
1.5
 11
20.5495605469
 21
3.51025390625
 12
21
 22
1.5
 13
19.6596679688
 23
3.07006835938
  0
LINE
  8
1
 62
7
 10
18
 20
1.5
 11
21
 21
7.5
  0
SOLID
  8
1
 62
7
 10
21
 20
7.5
 11
20.5495605469
 21
5.490234375
 12
21
 22
7.5
 13
19.6596679688
 23
5.93041992188
  0
LINE
  8
1
 62
7
 10
16.5
 20
1.5
 11
22.5
 21
1.5
  0
LINE
  8
1
 62
7
 10
22.5
 20
1.5
 11
22.5
 21
7.5
  0
LINE
  8
1
 62
7
 10
22.5
 20
7.5
 11
16.5
 21
7.5
  0
LINE
  8
1
 62
7
 10
16.5
 20
7.5
 11
16.5
 21
1.5
  0
TEXT
  8
1
 62
7
 40
1.5
  1
A
  7
STANDARD
 72
1
 10
9.5
 20
9.14282226563
 11
9.5
 21
9.14282226563
  0
LINE
  8
1
 62
7
 10
12
 20
9
 11
12
 21
7.5
  0
TEXT
  8
1
 62
7
 40
1.5
  1
B
  7
STANDARD
 72
1
 10
18
 20
9.14282226563
 11
18
 21
9.14282226563
  0
LINE
  8
1
 62
7
 10
15
 20
9
 11
15
 21
7.5
  0
TEXT
  8
1
 62
7
 40
1.5
  1
P
  7
STANDARD
 72
1
 10
9.5
 20
-1.85693359375
 11
9.5
 21
-1.85693359375
  0
LINE
  8
1
 62
7
 10
12
 20
0
 11
12
 21
1.5
  0
TEXT
  8
1
 62
7
 40
1.5
  1
T
  7
STANDARD
 72
1
 10
18
 20
-1.85693359375
 11
18
 21
-1.85693359375
  0
LINE
  8
1
 62
7
 10
15
 20
0
 11
15
 21
1.5
  0
ENDBLK
  8
0
  0
BLOCK
  8
0
  2
B9
 70
0
 10
0
 20
0
  0
POLYLINE
  8
TCONNECTIONS
 62
7
 70
1
 66
1
 40
0.375
 41
0.375
  0
VERTEX
  8
1
 10
1.3125
 20
1.5
 42
1
  0
VERTEX
  8
1
 10
1.6875
 20
1.5
 42
1
  0
SEQEND
  8
1
  0
ENDBLK
  8
0
  0
BLOCK
  8
0
  2
B10
 70
0
 10
0
 20
0
  0
LINE
  8
1
 62
7
 10
1
 20
2
 11
1
 21
0
  0
LINE
  8
1
 62
7
 10
13
 20
2
 11
13
 21
0
  0
LINE
  8
1
 62
7
 10
14
 20
8
 11
14
 21
5.75
  0
LINE
  8
1
 62
7
 10
14
 20
4.25
 11
14
 21
2
  0
LINE
  8
1
 62
7
 10
0
 20
8
 11
0
 21
2
  0
LINE
  8
1
 62
7
 10
0
 20
8
 11
14
 21
8
  0
LINE
  8
1
 62
7
 10
0
 20
2
 11
14
 21
2
  0
LINE
  8
1
 62
7
 10
18.8498535156
 20
4.25
 11
4.09985351563
 21
4.25
  0
LINE
  8
1
 62
7
 10
18.8498535156
 20
5.75
 11
18.8498535156
 21
4.25
  0
LINE
  8
1
 62
7
 10
4.09985351563
 20
5.75
 11
18.8498535156
 21
5.75
  0
LINE
  8
1
 62
7
 10
1.09985351563
 20
8
 11
1.09985351563
 21
2
  0
LINE
  8
1
 62
7
 10
4.09985351563
 20
8
 11
4.09985351563
 21
2
  0
TEXT
  8
1
 62
7
 40
1.5
  1
F=0 kN
  7
STANDARD
 10
20.3498535156
 20
4.64282226563
  0
ENDBLK
  8
0
  0
BLOCK
  8
0
  2
B11
 70
0
 10
0
 20
0
  0
LINE
  8
1
 62
7
 10
0.658935546875
 20
4.5908203125
 11
3.84057617188
 21
1.40893554688
  0
CIRCLE
  8
1
 62
7
 10
2.24975585938
 20
3
 40
2.25
  0
LINE
  8
1
 62
7
 10
2.24975585938
 20
0.75
 11
2.24975585938
 21
0
  0
SOLID
  8
1
 62
7
 10
0.658935546875
 20
4.5908203125
 11
1.29541015625
 21
3.95434570313
 12
0.658935546875
 22
4.5908203125
 13
1.50732421875
 23
4.16674804688
  0
SOLID
  8
1
 62
7
 10
0.658935546875
 20
4.5908203125
 11
1.0830078125
 21
3.75
 12
0.658935546875
 22
4.5908203125
 13
1.29541015625
 23
3.95434570313
  0
LINE
  8
1
 62
7
 10
0.658935546875
 20
4.5908203125
 11
1.0830078125
 21
3.75
  0
LINE
  8
1
 62
7
 10
0.658935546875
 20
4.5908203125
 11
1.50732421875
 21
4.16674804688
  0
LINE
  8
1
 62
7
 10
1.50732421875
 20
4.16674804688
 11
1.0830078125
 21
3.75
  0
ENDBLK
  8
0
  0
BLOCK
  8
0
  2
B12
 70
0
 10
0
 20
0
  0
POLYLINE
  8
TCONNECTIONS
 62
7
 70
1
 66
1
 40
0.375
 41
0.375
  0
VERTEX
  8
1
 10
1.3125
 20
1.5
 42
1
  0
VERTEX
  8
1
 10
1.6875
 20
1.5
 42
1
  0
SEQEND
  8
1
  0
ENDBLK
  8
0
  0
BLOCK
  8
0
  2
B13
 70
0
 10
0
 20
0
  0
LINE
  8
1
 62
7
 10
11.9997558594
 20
7.09814453125
 11
8.99975585938
 21
1.90209960938
  0
LINE
  8
1
 62
7
 10
9.37475585938
 20
6
 11
10.1247558594
 21
3
  0
LINE
  8
1
 62
7
 10
1.49975585938
 20
7.5
 11
1.49975585938
 21
1.5
  0
LINE
  8
1
 62
7
 10
2.99975585938
 20
7.5
 11
2.99975585938
 21
1.5
  0
LINE
  8
1
 62
7
 10
7.87475585938
 20
6
 11
8.62475585938
 21
3
  0
LINE
  8
1
 62
7
 10
9.37475585938
 20
6
 11
8.62475585938
 21
3
  0
LINE
  8
1
 62
7
 10
7.49975585938
 20
7.5
 11
7.49975585938
 21
1.5
  0
LINE
  8
1
 62
7
 10
2.62475585938
 20
3
 11
3.37475585938
 21
3
  0
LINE
  8
1
 62
7
 10
3.37475585938
 20
3
 11
2.99975585938
 21
1.5
  0
LINE
  8
1
 62
7
 10
2.62475585938
 20
3
 11
2.99975585938
 21
1.5
  0
LINE
  8
1
 62
7
 10
2.62475585938
 20
3
 11
2.99975585938
 21
1.5
  0
LINE
  8
1
 62
7
 10
3.37475585938
 20
3
 11
2.99975585938
 21
1.5
  0
SOLID
  8
1
 62
7
 10
2.99975585938
 20
1.5
 11
3.37475585938
 21
3
 12
2.99975585938
 22
1.5
 13
2.62475585938
 23
3
  0
LINE
  8
1
 62
7
 10
2.62475585938
 20
3
 11
3.37475585938
 21
3
  0
LINE
  8
1
 62
7
 10
1.49975585938
 20
7.5
 11
7.49975585938
 21
7.5
  0
LINE
  8
1
 62
7
  6
GESTRICHELT
 10
-0.000244140625
 20
9
 11
2.99975585938
 21
9
  0
LINE
  8
1
 62
7
  6
GESTRICHELT
 10
-0.000244140625
 20
9
 11
2.99975585938
 21
9
  0
LINE
  8
1
 62
7
  6
GESTRICHELT
 10
-0.000244140625
 20
9
 11
-0.000244140625
 21
4.5
  0
LINE
  8
1
 62
7
  6
GESTRICHELT
 10
-0.000244140625
 20
9
 11
-0.000244140625
 21
4.5
  0
LINE
  8
1
 62
7
  6
GESTRICHELT
 10
-0.000244140625
 20
4.5
 11
1.49975585938
 21
4.5
  0
LINE
  8
1
 62
7
  6
GESTRICHELT
 10
-0.000244140625
 20
4.5
 11
1.49975585938
 21
4.5
  0
LINE
  8
1
 62
7
 10
4.49975585938
 20
10.5
 11
4.49975585938
 21
7.5
  0
LINE
  8
1
 62
7
  6
GESTRICHELT
 10
2.99975585938
 20
9
 11
4.49975585938
 21
7.5
  0
LINE
  8
1
 62
7
  6
GESTRICHELT
 10
2.99975585938
 20
9
 11
4.49975585938
 21
7.5
  0
LINE
  8
1
 62
7
 10
7.87475585938
 20
6
 11
7.49975585938
 21
4.5
  0
LINE
  8
1
 62
7
 10
12.3747558594
 20
6
 11
11.6247558594
 21
3
  0
LINE
  8
1
 62
7
 10
10.8747558594
 20
6
 11
11.6247558594
 21
3
  0
LINE
  8
1
 62
7
 10
10.8747558594
 20
6
 11
10.1247558594
 21
3
  0
LINE
  8
1
 62
7
 10
12.3747558594
 20
6
 11
12.7497558594
 21
4.5
  0
LINE
  8
1
 62
7
 10
11.1398925781
 20
6.208984375
 11
11.6594238281
 21
5.90893554688
  0
SOLID
  8
1
 62
7
 10
11.9997558594
 20
7.09814453125
 11
11.3996582031
 21
6.05908203125
 12
11.9997558594
 22
7.09814453125
 13
11.6594238281
 23
5.90893554688
  0
LINE
  8
1
 62
7
 10
11.9997558594
 20
7.09814453125
 11
11.1398925781
 21
6.208984375
  0
SOLID
  8
1
 62
7
 10
11.9997558594
 20
7.09814453125
 11
11.1398925781
 21
6.208984375
 12
11.9997558594
 22
7.09814453125
 13
11.3996582031
 23
6.05908203125
  0
LINE
  8
1
 62
7
 10
11.9997558594
 20
7.09814453125
 11
11.6594238281
 21
5.90893554688
  0
LINE
  8
1
 62
7
 10
1.49975585938
 20
1.5
 11
7.49975585938
 21
1.5
  0
LINE
  8
1
 62
7
 10
4.49975585938
 20
1.5
 11
4.49975585938
 21
0
  0
TEXT
  8
1
 62
7
 40
1.5
  1
P
  7
STANDARD
 72
1
 10
7.24975585938
 20
8.89282226563
 11
7.24975585938
 21
8.89282226563
  0
TEXT
  8
1
 62
7
 40
1.5
  1
T
  7
STANDARD
 72
1
 10
6.99975585938
 20
-1.60693359375
 11
6.99975585938
 21
-1.60693359375
  0
ENDBLK
  8
0
  0
BLOCK
  8
0
  2
B14
 70
0
 10
0
 20
0
  0
LINE
  8
1
 62
7
 10
0.658935546875
 20
4.5908203125
 11
3.84057617188
 21
1.40893554688
  0
CIRCLE
  8
1
 62
7
 10
2.24975585938
 20
3
 40
2.25
  0
LINE
  8
1
 62
7
 10
2.24975585938
 20
0.75
 11
2.24975585938
 21
0
  0
SOLID
  8
1
 62
7
 10
0.658935546875
 20
4.5908203125
 11
1.29541015625
 21
3.95434570313
 12
0.658935546875
 22
4.5908203125
 13
1.50732421875
 23
4.16674804688
  0
SOLID
  8
1
 62
7
 10
0.658935546875
 20
4.5908203125
 11
1.0830078125
 21
3.75
 12
0.658935546875
 22
4.5908203125
 13
1.29541015625
 23
3.95434570313
  0
LINE
  8
1
 62
7
 10
0.658935546875
 20
4.5908203125
 11
1.0830078125
 21
3.75
  0
LINE
  8
1
 62
7
 10
0.658935546875
 20
4.5908203125
 11
1.50732421875
 21
4.16674804688
  0
LINE
  8
1
 62
7
 10
1.50732421875
 20
4.16674804688
 11
1.0830078125
 21
3.75
  0
ENDBLK
  8
0
  0
BLOCK
  8
0
  2
B15
 70
0
 10
0
 20
0
  0
POLYLINE
  8
TCONNECTIONS
 62
7
 70
1
 66
1
 40
0.375
 41
0.375
  0
VERTEX
  8
1
 10
1.3125
 20
1.5
 42
1
  0
VERTEX
  8
1
 10
1.6875
 20
1.5
 42
1
  0
SEQEND
  8
1
  0
ENDBLK
  8
0
  0
BLOCK
  8
0
  2
B16
 70
0
 10
0
 20
0
  0
CIRCLE
  8
1
 62
7
 10
3.1611328125
 20
1.060546875
 40
0.75
  0
LINE
  8
1
 62
7
 10
3.1611328125
 20
0
 11
2.10034179688
 21
1.060546875
  0
LINE
  8
1
 62
7
 10
3.1611328125
 20
2.12109375
 11
2.10034179688
 21
1.060546875
  0
LINE
  8
1
 62
7
 10
6
 20
1.060546875
 11
3.9150390625
 21
1.060546875
  0
LINE
  8
1
 62
7
 10
2.10034179688
 20
1.060546875
 11
0
 21
1.060546875
  0
TEXT
  8
1
 62
7
 40
1.5
  1
B
  7
STANDARD
 72
1
 10
6.75
 20
-2.79638671875
 11
6.75
 21
-2.79638671875
  0
TEXT
  8
1
 62
7
 40
1.5
  1
A
  7
STANDARD
 72
1
 10
-1
 20
-2.54638671875
 11
-1
 21
-2.54638671875
  0
ENDBLK
  8
0
  0
BLOCK
  8
0
  2
B17
 70
0
 10
0
 20
0
  0
ARC
  8
1
 62
7
 10
5.24975585938
 20
5.15112304688
 40
2.40112304688
 50
218
 51
321
  0
ARC
  8
1
 62
7
 10
5.24975585938
 20
-0.098876953125
 40
2.40112304688
 50
38
 51
141
  0
LINE
  8
1
 62
7
 10
7.37084960938
 20
4.64721679688
 11
6.41650390625
 21
4.11694335938
  0
LINE
  8
1
 62
7
 10
6.41650390625
 20
4.11694335938
 11
6.84057617188
 21
3.69287109375
  0
LINE
  8
1
 62
7
 10
7.37084960938
 20
4.64721679688
 11
6.84057617188
 21
3.69287109375
  0
SOLID
  8
1
 62
7
 10
7.37084960938
 20
4.64721679688
 11
6.41650390625
 21
4.11694335938
 12
7.37084960938
 22
4.64721679688
 13
6.84057617188
 23
3.69287109375
  0
LINE
  8
1
 62
7
 10
7.37084960938
 20
4.64721679688
 11
3.65869140625
 21
0.935302734375
  0
LINE
  8
1
 62
7
 10
-0.000244140625
 20
2.52612304688
 11
10.4997558594
 21
2.52612304688
  0
TEXT
  8
1
 62
7
 40
1.5
  1
A
  7
STANDARD
 72
1
 10
-0.750244140625
 20
4.1689453125
 11
-0.750244140625
 21
4.1689453125
  0
TEXT
  8
1
 62
7
 40
1.5
  1
B
  7
STANDARD
 72
1
 10
11.7497558594
 20
4.1689453125
 11
11.7497558594
 21
4.1689453125
  0
ENDBLK
  8
0
  0
BLOCK
  8
0
  2
B18
 70
0
 10
0
 20
0
  0
POLYLINE
  8
TCONNECTIONS
 62
7
 70
1
 66
1
 40
0.375
 41
0.375
  0
VERTEX
  8
1
 10
1.3125
 20
1.5
 42
1
  0
VERTEX
  8
1
 10
1.6875
 20
1.5
 42
1
  0
SEQEND
  8
1
  0
ENDBLK
  8
0
  0
BLOCK
  8
0
  2
B19
 70
0
 10
0
 20
0
  0
POLYLINE
  8
TCONNECTIONS
 62
7
 70
1
 66
1
 40
0.375
 41
0.375
  0
VERTEX
  8
1
 10
1.3125
 20
1.5
 42
1
  0
VERTEX
  8
1
 10
1.6875
 20
1.5
 42
1
  0
SEQEND
  8
1
  0
ENDBLK
  8
0
  0
BLOCK
  8
0
  2
B20
 70
0
 10
0
 20
0
  0
CIRCLE
  8
1
 62
7
 10
1.060546875
 20
3.1611328125
 40
0.75
  0
LINE
  8
1
 62
7
 10
2.12109375
 20
3.1611328125
 11
1.060546875
 21
2.10034179688
  0
LINE
  8
1
 62
7
 10
0
 20
3.1611328125
 11
1.060546875
 21
2.10034179688
  0
LINE
  8
1
 62
7
 10
1.060546875
 20
6
 11
1.060546875
 21
3.9150390625
  0
LINE
  8
1
 62
7
 10
1.060546875
 20
2.10034179688
 11
1.060546875
 21
0
  0
TEXT
  8
1
 62
7
 40
1.5
  1
B
  7
STANDARD
 72
1
 10
4.060546875
 20
5.89282226563
 11
4.060546875
 21
5.89282226563
  0
TEXT
  8
1
 62
7
 40
1.5
  1
A
  7
STANDARD
 72
1
 10
3.810546875
 20
-1.85693359375
 11
3.810546875
 21
-1.85693359375
  0
ENDBLK
  8
0
  0
BLOCK
  8
0
  2
B21
 70
0
 10
0
 20
0
  0
POLYLINE
  8
TCONNECTIONS
 62
7
 70
1
 66
1
 40
0.375
 41
0.375
  0
VERTEX
  8
1
 10
1.3125
 20
1.5
 42
1
  0
VERTEX
  8
1
 10
1.6875
 20
1.5
 42
1
  0
SEQEND
  8
1
  0
ENDBLK
  8
0
  0
BLOCK
  8
0
  2
B22
 70
0
 10
0
 20
0
  0
TEXT
  8
TEXT
 62
7
 40
2
  1
M1
  7
STANDARD
 72
1
 10
3.25
 20
1.73193359375
 11
3.25
 21
1.73193359375
  0
ENDBLK
  8
0
  0
BLOCK
  8
0
  2
B23
 70
0
 10
0
 20
0
  0
TEXT
  8
TEXT
 62
7
 40
2
  1
M2
  7
STANDARD
 72
1
 10
3.25
 20
1.73193359375
 11
3.25
 21
1.73193359375
  0
ENDBLK
  8
0
  0
BLOCK
  8
0
  2
B24
 70
0
 10
0
 20
0
  0
TEXT
  8
TEXT
 62
7
 40
2
  1
M3
  7
STANDARD
 72
1
 10
3.25
 20
1.73193359375
 11
3.25
 21
1.73193359375
  0
ENDBLK
  8
0
  0
ENDSEC
  0
SECTION
  2
ENTITIES
  0
INSERT
  8
1
  2
B2
 10
21.375
 20
2.5
  0
INSERT
  8
1
  2
B3
 10
3.37524414063
 20
26.5007324219
  0
INSERT
  8
1
  2
B4
 10
5.87524414063
 20
20.0007324219
  0
INSERT
  8
1
  2
B5
 10
5.62524414063
 20
43.0007324219
  0
INSERT
  8
1
  2
B6
 10
44.8752441406
 20
42.5007324219
  0
INSERT
  8
1
  2
B7
 10
6.375
 20
38.5007324219
  0
INSERT
  8
1
  2
B8
 10
31.875
 20
47.5007324219
  0
INSERT
  8
1
  2
B9
 10
42.375
 20
38.5007324219
  0
INSERT
  8
1
  2
B10
 10
42.875
 20
88.0007324219
  0
INSERT
  8
1
  2
B11
 10
37.1252441406
 20
82.0007324219
  0
INSERT
  8
1
  2
B12
 10
42.375
 20
76.0007324219
  0
INSERT
  8
1
  2
B13
 10
61.8752441406
 20
67.0007324219
  0
INSERT
  8
1
  2
B14
 10
65.6252441406
 20
86.5007324219
  0
INSERT
  8
1
  2
B15
 10
54.375
 20
83.5007324219
  0
INSERT
  8
1
  2
B16
 10
57.375
 20
61.4401855469
  0
INSERT
  8
1
  2
B17
 10
45.3752441406
 20
59.974609375
  0
INSERT
  8
1
  2
B18
 10
42.375
 20
61.0007324219
  0
INSERT
  8
1
  2
B19
 10
64.875
 20
61.0007324219
  0
INSERT
  8
1
  2
B20
 10
78.814453125
 20
68.5007324219
  0
INSERT
  8
1
  2
B21
 10
64.875
 20
79.0007324219
  0
INSERT
  8
1
  2
B22
 10
2.5
 20
50.0007324219
  0
INSERT
  8
1
  2
B23
 10
28.5625
 20
81.0632324219
  0
INSERT
  8
1
  2
B24
 10
71.0625
 20
85.8132324219
  0
INSERT
  8
1
  2
B1
 10
-95.375
 20
0
  0
ENDSEC
  0
EOF
