  0
SECTION
  2
HEADER
  9
$LIMMIN
 10
0
 20
0
  9
$LIMMAX
 10
297
 20
210
  9
$EXTMIN
 10
108.25
 20
28.5
  9
$EXTMAX
 10
256.776123047
 20
168.25
  0
ENDSEC
  0
SECTION
  2
TABLES
  0
TABLE
  2
LTYPE
 70
9
  0
LTYPE
  2
AUSGEZOGEN
 70
64
  3
Ausgezogene Linie
 72
65
 73
0
 40
0.0
  0
LTYPE
  2
GESTRICHELT
 70
0
  3
__ __ __ __ __ __ __ __ __ __ __ __ __ __ __
 72
65
 73
2
 40
3
 49
2
 49
-1
  0
LTYPE
  2
STRICHPUNKTIERT
 70
0
  3
__ . __ . __ . __ . __ . __ . __ . __ . __ .
 72
65
 73
4
 40
8
 49
4
 49
-2
 49
0
 49
-2
  0
ENDTAB
  0
TABLE
  2
LAYER
 70
10
  0
LAYER
  2
1
 70
0
 62
7
  6
AUSGEZOGEN
  0
LAYER
  2
LINES
 70
0
 62
7
  6
AUSGEZOGEN
  0
LAYER
  2
CONNECTIONS
 70
0
 62
-7
  6
AUSGEZOGEN
  0
LAYER
  2
TEXT
 70
0
 62
7
  6
AUSGEZOGEN
  0
LAYER
  2
TCONNECTIONS
 70
0
 62
7
  6
AUSGEZOGEN
  0
ENDTAB
  0
ENDSEC
  0
SECTION
  2
BLOCKS
  0
BLOCK
  8
0
  2
B1
 70
0
 10
0
 20
0
  0
LINE
  8
LINES
 62
7
 10
152.75
 20
56
 11
161.75
 21
56
  0
LINE
  8
LINES
 62
7
 10
161.75
 20
56
 11
161.75
 21
56
  0
LINE
  8
LINES
 62
7
 10
199.25
 20
56
 11
199.25
 21
53
  0
LINE
  8
LINES
 62
7
 10
199.25
 20
53
 11
199.25
 21
53
  0
LINE
  8
LINES
 62
7
 10
199.25
 20
53
 11
199.25
 21
48.5
  0
LINE
  8
LINES
 62
7
 10
199.25
 20
56
 11
212.75
 21
56
  0
LINE
  8
LINES
 62
7
 10
212.75
 20
56
 11
212.75
 21
56
  0
LINE
  8
LINES
 62
7
 10
199.25
 20
18.5
 11
199.25
 21
23
  0
LINE
  8
LINES
 62
7
 10
199.25
 20
23
 11
199.25
 21
23
  0
LINE
  8
LINES
 62
7
 10
199.25
 20
23
 11
199.25
 21
26
  0
LINE
  8
LINES
 62
7
 10
199.25
 20
18.5
 11
199.25
 21
18.5
  0
LINE
  8
LINES
 62
7
 10
175.25
 20
18.5
 11
199.25
 21
18.5
  0
LINE
  8
LINES
 62
7
 10
199.25
 20
18.5
 11
218.75
 21
18.5
  0
LINE
  8
LINES
 62
7
 10
218.75
 20
18.5
 11
218.75
 21
18.5
  0
LINE
  8
LINES
 62
7
 10
199.25
 20
33.5
 11
199.25
 21
36.5
  0
LINE
  8
LINES
 62
7
 10
199.25
 20
36.5
 11
199.25
 21
36.5
  0
LINE
  8
LINES
 62
7
 10
199.25
 20
36.5
 11
199.25
 21
41
  0
LINE
  8
LINES
 62
7
 10
161.75
 20
42.5
 11
161.75
 21
48.5
  0
LINE
  8
LINES
 62
7
 10
161.75
 20
48.5
 11
161.75
 21
48.5
  0
LINE
  8
LINES
 62
7
 10
161.75
 20
48.5
 11
161.75
 21
56
  0
LINE
  8
LINES
 62
7
 10
161.75
 20
30.5
 11
161.75
 21
26
  0
LINE
  8
LINES
 62
7
 10
161.75
 20
26
 11
161.75
 21
26
  0
LINE
  8
LINES
 62
7
 10
161.75
 20
26
 11
161.75
 21
18.5
  0
LINE
  8
LINES
 62
7
 10
169.25
 20
36.5
 11
175.25
 21
36.5
  0
LINE
  8
LINES
 62
7
 10
175.25
 20
36.5
 11
175.25
 21
33.5
  0
LINE
  8
LINES
 62
7
 10
175.25
 20
33.5
 11
175.25
 21
33.5
  0
LINE
  8
LINES
 62
7
 10
161.75
 20
56
 11
199.25
 21
56
  0
LINE
  8
LINES
 62
7
 10
199.25
 20
56
 11
199.25
 21
56
  0
LINE
  8
LINES
 62
7
 10
154.25
 20
18.5
 11
161.75
 21
18.5
  0
LINE
  8
LINES
 62
7
 10
154.25
 20
18.5
 11
154.25
 21
18.5
  0
LINE
  8
LINES
 62
7
 10
175.25
 20
26
 11
175.25
 21
24.5
  0
LINE
  8
LINES
 62
7
 10
175.25
 20
24.5
 11
175.25
 21
24.5
  0
LINE
  8
LINES
 62
7
 10
175.25
 20
24.5
 11
175.25
 21
18.5
  0
LINE
  8
LINES
 62
7
 10
161.75
 20
18.5
 11
175.25
 21
18.5
  0
LINE
  8
LINES
 62
7
 10
161.75
 20
18.5
 11
161.75
 21
18.5
  0
LINE
  8
LINES
 62
7
 10
218.75
 20
30.5
 11
218.75
 21
35
  0
LINE
  8
LINES
 62
7
 10
218.75
 20
35
 11
218.75
 21
35
  0
LINE
  8
LINES
 62
7
 10
212.75
 20
41
 11
212.75
 21
41
  0
LINE
  8
LINES
 62
7
 10
212.75
 20
41
 11
212.75
 21
35
  0
LINE
  8
LINES
 62
7
 10
212.75
 20
35
 11
218.75
 21
35
  0
LINE
  8
LINES
 62
7
 10
224.75
 20
54.5
 11
224.75
 21
56
  0
LINE
  8
LINES
 62
7
 10
224.75
 20
56
 11
224.75
 21
56
  0
LINE
  8
LINES
 62
7
 10
224.75
 20
47
 11
224.75
 21
47
  0
LINE
  8
LINES
 62
7
 10
224.75
 20
47
 11
224.75
 21
47
  0
LINE
  8
LINES
 62
7
 10
224.75
 20
47
 11
224.75
 21
45.5
  0
LINE
  8
LINES
 62
7
 10
218.75
 20
35
 11
224.75
 21
35
  0
LINE
  8
LINES
 62
7
 10
224.75
 20
35
 11
224.75
 21
38
  0
LINE
  8
LINES
 62
7
 10
212.75
 20
56
 11
212.75
 21
48.5
  0
LINE
  8
LINES
 62
7
 10
212.75
 20
48.5
 11
212.75
 21
48.5
  0
LINE
  8
LINES
 62
7
 10
241.25
 20
30.5
 11
241.25
 21
36.5
  0
LINE
  8
LINES
 62
7
 10
241.25
 20
36.5
 11
241.25
 21
36.5
  0
LINE
  8
LINES
 62
7
 10
241.25
 20
36.5
 11
241.25
 21
41
  0
LINE
  8
LINES
 62
7
 10
241.25
 20
23
 11
241.25
 21
23
  0
LINE
  8
LINES
 62
7
 10
241.25
 20
23
 11
241.25
 21
18.5
  0
LINE
  8
LINES
 62
7
 10
218.75
 20
18.5
 11
241.25
 21
18.5
  0
LINE
  8
LINES
 62
7
 10
241.25
 20
48.5
 11
241.25
 21
48.5
  0
LINE
  8
LINES
 62
7
 10
241.25
 20
48.5
 11
241.25
 21
56
  0
LINE
  8
LINES
 62
7
 10
224.75
 20
56
 11
241.25
 21
56
  0
LINE
  8
LINES
 62
7
 10
224.75
 20
56
 11
224.75
 21
56
  0
LINE
  8
LINES
 62
7
 10
212.75
 20
56
 11
224.75
 21
56
  0
LINE
  8
LINES
 62
7
 10
212.75
 20
56
 11
212.75
 21
56
  0
LINE
  8
LINES
 62
7
 10
218.75
 20
18.5
 11
218.75
 21
23
  0
LINE
  8
LINES
 62
7
 10
218.75
 20
23
 11
218.75
 21
23
  0
LINE
  8
LINES
 62
7
 10
209.75
 20
90.5
 11
209.75
 21
107
  0
LINE
  8
LINES
 62
7
 10
209.75
 20
107
 11
209.75
 21
107
  0
LINE
  8
LINES
 62
7
 10
209.75
 20
107
 11
209.75
 21
114.5
  0
LINE
  8
LINES
 62
7
 10
212.75
 20
90.5
 11
212.75
 21
93.5
  0
LINE
  8
LINES
 62
7
 10
212.75
 20
93.5
 11
221.75
 21
93.5
  0
LINE
  8
LINES
 62
7
 10
221.75
 20
93.5
 11
221.75
 21
93.5
  0
LINE
  8
LINES
 62
7
 10
209.75
 20
81.5
 11
209.75
 21
80
  0
LINE
  8
LINES
 62
7
 10
209.75
 20
80
 11
209.75
 21
80
  0
LINE
  8
LINES
 62
7
 10
209.75
 20
80
 11
209.75
 21
77
  0
LINE
  8
LINES
 62
7
 10
212.75
 20
81.5
 11
212.75
 21
80
  0
LINE
  8
LINES
 62
7
 10
212.75
 20
80
 11
212.75
 21
80
  0
LINE
  8
LINES
 62
7
 10
212.75
 20
80
 11
212.75
 21
78.5
  0
LINE
  8
LINES
 62
7
 10
221.75
 20
122
 11
221.75
 21
110
  0
LINE
  8
LINES
 62
7
 10
221.75
 20
110
 11
221.75
 21
110
  0
LINE
  8
LINES
 62
7
 10
226.25
 20
105.5
 11
226.25
 21
105.5
  0
LINE
  8
LINES
 62
7
 10
226.25
 20
105.5
 11
226.25
 21
110
  0
LINE
  8
LINES
 62
7
 10
221.75
 20
110
 11
226.25
 21
110
  0
LINE
  8
LINES
 62
7
 10
226.25
 20
99.5
 11
226.25
 21
99.5
  0
LINE
  8
LINES
 62
7
 10
226.25
 20
99.5
 11
226.25
 21
93.5
  0
LINE
  8
LINES
 62
7
 10
226.25
 20
93.5
 11
226.25
 21
93.5
  0
LINE
  8
LINES
 62
7
 10
248.75
 20
114.5
 11
251.75
 21
114.5
  0
LINE
  8
LINES
 62
7
 10
251.75
 20
114.5
 11
251.75
 21
111.5
  0
LINE
  8
LINES
 62
7
 10
251.75
 20
111.5
 11
251.75
 21
111.5
  0
LINE
  8
LINES
 62
7
 10
224.75
 20
114.5
 11
239.75
 21
114.5
  0
LINE
  8
LINES
 62
7
 10
224.75
 20
114.5
 11
224.75
 21
114.5
  0
LINE
  8
LINES
 62
7
 10
209.75
 20
114.5
 11
224.75
 21
114.5
  0
LINE
  8
LINES
 62
7
 10
221.75
 20
93.5
 11
221.75
 21
95
  0
LINE
  8
LINES
 62
7
 10
221.75
 20
95
 11
221.75
 21
95
  0
LINE
  8
LINES
 62
7
 10
221.75
 20
95
 11
221.75
 21
98
  0
LINE
  8
LINES
 62
7
 10
221.75
 20
93.5
 11
226.25
 21
93.5
  0
LINE
  8
LINES
 62
7
 10
221.75
 20
93.5
 11
221.75
 21
93.5
  0
LINE
  8
LINES
 62
7
 10
226.25
 20
93.5
 11
230.75
 21
93.5
  0
LINE
  8
LINES
 62
7
 10
230.75
 20
93.5
 11
230.75
 21
93.5
  0
LINE
  8
LINES
 62
7
 10
230.75
 20
93.5
 11
235.25
 21
93.5
  0
LINE
  8
LINES
 62
7
 10
221.75
 20
110
 11
221.75
 21
110
  0
LINE
  8
LINES
 62
7
 10
221.75
 20
110
 11
221.75
 21
110
  0
LINE
  8
LINES
 62
7
 10
221.75
 20
110
 11
221.75
 21
108.5
  0
LINE
  8
LINES
 62
7
 10
209.75
 20
114.5
 11
209.75
 21
122
  0
LINE
  8
LINES
 62
7
 10
209.75
 20
122
 11
209.75
 21
122
  0
LINE
  8
LINES
 62
7
 10
251.75
 20
101
 11
251.75
 21
101
  0
LINE
  8
LINES
 62
7
 10
251.75
 20
101
 11
251.75
 21
93.5
  0
LINE
  8
LINES
 62
7
 10
241.25
 20
93.5
 11
251.75
 21
93.5
  0
LINE
  8
LINES
 62
7
 10
122.75
 20
93.5
 11
122.75
 21
107
  0
LINE
  8
LINES
 62
7
 10
122.75
 20
107
 11
122.75
 21
107
  0
LINE
  8
LINES
 62
7
 10
122.75
 20
107
 11
122.75
 21
122
  0
LINE
  8
LINES
 62
7
 10
125.75
 20
93.5
 11
125.75
 21
96.5
  0
LINE
  8
LINES
 62
7
 10
125.75
 20
96.5
 11
134.75
 21
96.5
  0
LINE
  8
LINES
 62
7
 10
134.75
 20
96.5
 11
134.75
 21
96.5
  0
LINE
  8
LINES
 62
7
 10
122.75
 20
84.5
 11
122.75
 21
83
  0
LINE
  8
LINES
 62
7
 10
122.75
 20
83
 11
122.75
 21
83
  0
LINE
  8
LINES
 62
7
 10
122.75
 20
83
 11
122.75
 21
80
  0
LINE
  8
LINES
 62
7
 10
125.75
 20
84.5
 11
125.75
 21
83
  0
LINE
  8
LINES
 62
7
 10
125.75
 20
83
 11
125.75
 21
83
  0
LINE
  8
LINES
 62
7
 10
125.75
 20
83
 11
125.75
 21
81.5
  0
LINE
  8
LINES
 62
7
 10
134.75
 20
122
 11
134.75
 21
117.5
  0
LINE
  8
LINES
 62
7
 10
134.75
 20
117.5
 11
134.75
 21
117.5
  0
LINE
  8
LINES
 62
7
 10
134.75
 20
117.5
 11
134.75
 21
114.5
  0
LINE
  8
LINES
 62
7
 10
139.25
 20
108.5
 11
139.25
 21
111.5
  0
LINE
  8
LINES
 62
7
 10
139.25
 20
111.5
 11
139.25
 21
111.5
  0
LINE
  8
LINES
 62
7
 10
139.25
 20
111.5
 11
139.25
 21
114.5
  0
LINE
  8
LINES
 62
7
 10
139.25
 20
102.5
 11
139.25
 21
102.5
  0
LINE
  8
LINES
 62
7
 10
139.25
 20
102.5
 11
139.25
 21
96.5
  0
LINE
  8
LINES
 62
7
 10
139.25
 20
96.5
 11
139.25
 21
96.5
  0
LINE
  8
LINES
 62
7
 10
161.75
 20
114.5
 11
164.75
 21
114.5
  0
LINE
  8
LINES
 62
7
 10
164.75
 20
114.5
 11
164.75
 21
96.5
  0
LINE
  8
LINES
 62
7
 10
139.25
 20
96.5
 11
164.75
 21
96.5
  0
LINE
  8
LINES
 62
7
 10
143.75
 20
114.5
 11
152.75
 21
114.5
  0
LINE
  8
LINES
 62
7
 10
143.75
 20
114.5
 11
143.75
 21
114.5
  0
LINE
  8
LINES
 62
7
 10
139.25
 20
114.5
 11
143.75
 21
114.5
  0
LINE
  8
LINES
 62
7
 10
134.75
 20
114.5
 11
134.75
 21
111.5
  0
LINE
  8
LINES
 62
7
 10
134.75
 20
111.5
 11
134.75
 21
111.5
  0
LINE
  8
LINES
 62
7
 10
134.75
 20
114.5
 11
139.25
 21
114.5
  0
LINE
  8
LINES
 62
7
 10
134.75
 20
114.5
 11
134.75
 21
114.5
  0
LINE
  8
LINES
 62
7
 10
134.75
 20
96.5
 11
134.75
 21
101
  0
LINE
  8
LINES
 62
7
 10
134.75
 20
101
 11
134.75
 21
101
  0
LINE
  8
LINES
 62
7
 10
134.75
 20
96.5
 11
139.25
 21
96.5
  0
LINE
  8
LINES
 62
7
 10
134.75
 20
96.5
 11
134.75
 21
96.5
  0
ENDBLK
  8
0
  0
BLOCK
  8
0
  2
B2
 70
0
 10
0
 20
0
  0
TEXT
  8
1
 62
7
 40
1.5
  1
  0V
  7
STANDARD
 72
1
 10
0.999755859375
 20
3.64282226563
 11
0.999755859375
 21
3.64282226563
  0
CIRCLE
  8
1
 62
7
 10
1.49975585938
 20
1.5
 40
0.75
  0
LINE
  8
1
 62
7
 10
2.24975585938
 20
1.5
 11
4.49975585938
 21
1.5
  0
ENDBLK
  8
0
  0
BLOCK
  8
0
  2
B3
 70
0
 10
0
 20
0
  0
TEXT
  8
1
 62
7
 40
1.5
  1
+24V
  7
STANDARD
 72
1
 10
0.999755859375
 20
3.64282226563
 11
0.999755859375
 21
3.64282226563
  0
CIRCLE
  8
1
 62
7
 10
1.49975585938
 20
1.5
 40
0.75
  0
LINE
  8
1
 62
7
 10
2.24975585938
 20
1.5
 11
4.49975585938
 21
1.5
  0
ENDBLK
  8
0
  0
BLOCK
  8
0
  2
B4
 70
0
 10
0
 20
0
  0
POLYLINE
  8
TCONNECTIONS
 62
7
 70
1
 66
1
 40
0.375
 41
0.375
  0
VERTEX
  8
1
 10
1.3125
 20
1.5
 42
1
  0
VERTEX
  8
1
 10
1.6875
 20
1.5
 42
1
  0
SEQEND
  8
1
  0
ENDBLK
  8
0
  0
BLOCK
  8
0
  2
B5
 70
0
 10
0
 20
0
  0
POLYLINE
  8
TCONNECTIONS
 62
7
 70
1
 66
1
 40
0.375
 41
0.375
  0
VERTEX
  8
1
 10
1.3125
 20
1.5
 42
1
  0
VERTEX
  8
1
 10
1.6875
 20
1.5
 42
1
  0
SEQEND
  8
1
  0
ENDBLK
  8
0
  0
BLOCK
  8
0
  2
B6
 70
0
 10
0
 20
0
  0
TEXT
  8
1
 62
7
 40
1.5
  1
K2
  7
STANDARD
 72
1
 10
-2.75
 20
2.89282226563
 11
-2.75
 21
2.89282226563
  0
TEXT
  8
1
 62
7
 40
1.5
  1
1
  7
STANDARD
 72
1
 10
6.49975585938
 20
2.89282226563
 11
6.49975585938
 21
2.89282226563
  0
LINE
  8
1
 62
7
 10
8.99951171875
 20
5.25
 11
8.99951171875
 21
2.25
  0
SOLID
  8
1
 62
7
 10
2.99951171875
 20
5.25
 11
2.99951171875
 21
2.25
 12
2.99951171875
 22
5.25
 13
-0.00048828125
 23
2.25
  0
SOLID
  8
1
 62
7
 10
2.99951171875
 20
5.25
 11
-0.00048828125
 21
2.25
 12
2.99951171875
 22
5.25
 13
-0.00048828125
 23
5.25
  0
LINE
  8
1
 62
7
 10
2.99951171875
 20
2.25
 11
8.99951171875
 21
2.25
  0
LINE
  8
1
 62
7
 10
5.99951171875
 20
2.25
 11
5.99951171875
 21
0
  0
LINE
  8
1
 62
7
 10
2.99951171875
 20
5.25
 11
8.99951171875
 21
5.25
  0
LINE
  8
1
 62
7
 10
5.99951171875
 20
7.5
 11
5.99951171875
 21
5.25
  0
TEXT
  8
1
 62
7
 40
1.5
  1
A1
  7
STANDARD
 72
1
 10
9.49951171875
 20
8.14282226563
 11
9.49951171875
 21
8.14282226563
  0
TEXT
  8
1
 62
7
 40
1.5
  1
A2
  7
STANDARD
 72
1
 10
9.49951171875
 20
-2.35693359375
 11
9.49951171875
 21
-2.35693359375
  0
ENDBLK
  8
0
  0
BLOCK
  8
0
  2
B7
 70
0
 10
0
 20
0
  0
TEXT
  8
1
 62
7
 40
1.5
  1
A0
  7
STANDARD
 72
1
 10
-2.6748046875
 20
5.14282226563
 11
-2.6748046875
 21
5.14282226563
  0
LINE
  8
1
 62
7
 10
-0.00048828125
 20
10.5
 11
-0.00048828125
 21
1.5
  0
LINE
  8
1
 62
7
 10
8.99951171875
 20
10.5
 11
8.99951171875
 21
1.5
  0
LINE
  8
1
 62
7
 10
3.37451171875
 20
7.875
 11
4.49951171875
 21
6.75
  0
LINE
  8
1
 62
7
 10
5.62451171875
 20
7.875
 11
4.49951171875
 21
6.75
  0
LINE
  8
1
 62
7
 10
-0.00048828125
 20
1.5
 11
8.99951171875
 21
1.5
  0
LINE
  8
1
 62
7
 10
1.12451171875
 20
2.625
 11
4.12451171875
 21
2.625
  0
LINE
  8
1
 62
7
 10
1.87451171875
 20
3
 11
3.37451171875
 21
3
  0
SOLID
  8
1
 62
7
 10
2.62451171875
 20
2.625
 11
2.62451171875
 21
3
 12
2.62451171875
 22
2.625
 13
1.87451171875
 23
3
  0
SOLID
  8
1
 62
7
 10
1.12451171875
 20
2.625
 11
2.62451171875
 21
2.625
 12
1.12451171875
 22
2.625
 13
1.87451171875
 23
3
  0
SOLID
  8
1
 62
7
 10
1.12451171875
 20
3.75
 11
1.12451171875
 21
2.625
 12
1.12451171875
 22
3.75
 13
1.87451171875
 23
3
  0
SOLID
  8
1
 62
7
 10
1.12451171875
 20
3.75
 11
1.87451171875
 21
3
 12
1.12451171875
 22
3.75
 13
1.87451171875
 23
3.75
  0
LINE
  8
1
 62
7
 10
1.12451171875
 20
3.75
 11
1.12451171875
 21
2.625
  0
LINE
  8
1
 62
7
 10
1.12451171875
 20
3.75
 11
1.87451171875
 21
3.75
  0
LINE
  8
1
 62
7
 10
1.87451171875
 20
3.75
 11
1.87451171875
 21
3
  0
LINE
  8
1
 62
7
 10
4.49951171875
 20
1.5
 11
4.49951171875
 21
0
  0
LINE
  8
1
 62
7
 10
4.49951171875
 20
1.5
 11
4.49951171875
 21
0
  0
LINE
  8
1
 62
7
 10
2.62451171875
 20
2.625
 11
4.12451171875
 21
2.625
  0
LINE
  8
1
 62
7
 10
2.62451171875
 20
3
 11
3.37451171875
 21
3
  0
SOLID
  8
1
 62
7
 10
3.37451171875
 20
3
 11
2.62451171875
 21
3
 12
3.37451171875
 22
3
 13
2.62451171875
 23
2.625
  0
SOLID
  8
1
 62
7
 10
3.37451171875
 20
3
 11
2.62451171875
 21
2.625
 12
3.37451171875
 22
3
 13
4.12451171875
 23
2.625
  0
SOLID
  8
1
 62
7
 10
3.37451171875
 20
3
 11
4.12451171875
 21
2.625
 12
3.37451171875
 22
3
 13
4.12451171875
 23
3.75
  0
SOLID
  8
1
 62
7
 10
4.12451171875
 20
3.75
 11
3.37451171875
 21
3.75
 12
4.12451171875
 22
3.75
 13
3.37451171875
 23
3
  0
LINE
  8
1
 62
7
 10
3.37451171875
 20
3.75
 11
4.12451171875
 21
3.75
  0
LINE
  8
1
 62
7
 10
3.37451171875
 20
3.75
 11
4.12451171875
 21
3.75
  0
LINE
  8
1
 62
7
 10
3.37451171875
 20
3.75
 11
3.37451171875
 21
3
  0
LINE
  8
1
 62
7
 10
3.37451171875
 20
3.75
 11
3.37451171875
 21
3
  0
LINE
  8
1
 62
7
 10
4.12451171875
 20
3.75
 11
4.12451171875
 21
2.625
  0
LINE
  8
1
 62
7
 10
4.12451171875
 20
3.75
 11
4.12451171875
 21
2.625
  0
LINE
  8
1
 62
7
 10
1.12451171875
 20
4.5
 11
3.18701171875
 21
4.5
  0
LINE
  8
1
 62
7
 10
5.62451171875
 20
5.625
 11
3.37451171875
 21
4.5
  0
LINE
  8
1
 62
7
 10
2.99951171875
 20
4.5
 11
3.37451171875
 21
4.5
  0
LINE
  8
1
 62
7
 10
5.43701171875
 20
4.5
 11
7.49951171875
 21
4.5
  0
LINE
  8
1
 62
7
 10
10.462890625
 20
5.38598632813
 11
10.462890625
 21
4.54223632813
  0
LINE
  8
1
 62
7
 10
11.306640625
 20
5.38598632813
 11
11.306640625
 21
4.54223632813
  0
LINE
  8
1
 62
7
 10
11.306640625
 20
4.54223632813
 11
12.150390625
 21
4.54223632813
  0
LINE
  8
1
 62
7
 10
9.619140625
 20
4.54223632813
 11
10.462890625
 21
4.54223632813
  0
LINE
  8
1
 62
7
 10
10.462890625
 20
5.38598632813
 11
11.306640625
 21
5.38598632813
  0
LINE
  8
1
 62
7
 10
8.99951171875
 20
6
 11
11.9995117188
 21
6
  0
LINE
  8
1
 62
7
 10
-0.00048828125
 20
10.5
 11
8.99951171875
 21
10.5
  0
LINE
  8
1
 62
7
 10
4.49951171875
 20
12
 11
4.49951171875
 21
10.5
  0
LINE
  8
1
 62
7
 10
4.12451171875
 20
8.625
 11
4.12451171875
 21
7.125
  0
LINE
  8
1
 62
7
 10
4.87451171875
 20
8.625
 11
4.87451171875
 21
7.125
  0
LINE
  8
1
 62
7
 10
4.49951171875
 20
9
 11
3.37451171875
 21
7.875
  0
LINE
  8
1
 62
7
 10
4.49951171875
 20
9
 11
5.62451171875
 21
7.875
  0
ENDBLK
  8
0
  0
BLOCK
  8
0
  2
B8
 70
0
 10
0
 20
0
  0
POLYLINE
  8
TCONNECTIONS
 62
7
 70
1
 66
1
 40
0.375
 41
0.375
  0
VERTEX
  8
1
 10
1.3125
 20
1.5
 42
1
  0
VERTEX
  8
1
 10
1.6875
 20
1.5
 42
1
  0
SEQEND
  8
1
  0
ENDBLK
  8
0
  0
BLOCK
  8
0
  2
B9
 70
0
 10
0
 20
0
  0
POLYLINE
  8
TCONNECTIONS
 62
7
 70
1
 66
1
 40
0.375
 41
0.375
  0
VERTEX
  8
1
 10
1.3125
 20
1.5
 42
1
  0
VERTEX
  8
1
 10
1.6875
 20
1.5
 42
1
  0
SEQEND
  8
1
  0
ENDBLK
  8
0
  0
BLOCK
  8
0
  2
B10
 70
0
 10
0
 20
0
  0
TEXT
  8
1
 62
7
 40
1.5
  1
K1
  7
STANDARD
 72
1
 10
-2.75
 20
2.89282226563
 11
-2.75
 21
2.89282226563
  0
LINE
  8
1
 62
7
 10
-0.00048828125
 20
2.25
 11
5.99951171875
 21
2.25
  0
LINE
  8
1
 62
7
 10
-0.00048828125
 20
5.25
 11
5.99951171875
 21
5.25
  0
LINE
  8
1
 62
7
 10
2.99951171875
 20
2.25
 11
2.99951171875
 21
0
  0
LINE
  8
1
 62
7
 10
-0.00048828125
 20
5.25
 11
-0.00048828125
 21
2.25
  0
LINE
  8
1
 62
7
 10
2.99951171875
 20
7.5
 11
2.99951171875
 21
5.25
  0
LINE
  8
1
 62
7
 10
5.99951171875
 20
5.25
 11
5.99951171875
 21
2.25
  0
TEXT
  8
1
 62
7
 40
1.5
  1
A1
  7
STANDARD
 72
1
 10
6.49951171875
 20
8.14282226563
 11
6.49951171875
 21
8.14282226563
  0
TEXT
  8
1
 62
7
 40
1.5
  1
A2
  7
STANDARD
 72
1
 10
6.49951171875
 20
-2.35693359375
 11
6.49951171875
 21
-2.35693359375
  0
ENDBLK
  8
0
  0
BLOCK
  8
0
  2
B11
 70
0
 10
0
 20
0
  0
POLYLINE
  8
TCONNECTIONS
 62
7
 70
1
 66
1
 40
0.375
 41
0.375
  0
VERTEX
  8
1
 10
1.3125
 20
1.5
 42
1
  0
VERTEX
  8
1
 10
1.6875
 20
1.5
 42
1
  0
SEQEND
  8
1
  0
ENDBLK
  8
0
  0
BLOCK
  8
0
  2
B12
 70
0
 10
0
 20
0
  0
TEXT
  8
1
 62
7
 40
1.5
  1
K1
  7
STANDARD
 72
1
 10
-2
 20
2.89282226563
 11
-2
 21
2.89282226563
  0
LINE
  8
1
 62
7
 10
0.999755859375
 20
5.3251953125
 11
2.49975585938
 21
2.25
  0
LINE
  8
1
 62
7
 10
2.49975585938
 20
2.25
 11
2.49975585938
 21
0
  0
LINE
  8
1
 62
7
 10
2.49975585938
 20
7.5
 11
2.49975585938
 21
5.25
  0
TEXT
  8
1
 62
7
 40
1.5
  1
3
  7
STANDARD
 72
1
 10
5.24975585938
 20
8.14282226563
 11
5.24975585938
 21
8.14282226563
  0
TEXT
  8
1
 62
7
 40
1.5
  1
4
  7
STANDARD
 72
1
 10
5.24975585938
 20
-2.35693359375
 11
5.24975585938
 21
-2.35693359375
  0
ENDBLK
  8
0
  0
BLOCK
  8
0
  2
B13
 70
0
 10
0
 20
0
  0
TEXT
  8
1
 62
7
 40
1.5
  1
K3
  7
STANDARD
 72
1
 10
-2.75
 20
2.89282226563
 11
-2.75
 21
2.89282226563
  0
LINE
  8
1
 62
7
 10
-0.00048828125
 20
2.25
 11
5.99951171875
 21
2.25
  0
LINE
  8
1
 62
7
 10
-0.00048828125
 20
5.25
 11
5.99951171875
 21
5.25
  0
LINE
  8
1
 62
7
 10
2.99951171875
 20
2.25
 11
2.99951171875
 21
0
  0
LINE
  8
1
 62
7
 10
-0.00048828125
 20
5.25
 11
-0.00048828125
 21
2.25
  0
LINE
  8
1
 62
7
 10
2.99951171875
 20
7.5
 11
2.99951171875
 21
5.25
  0
LINE
  8
1
 62
7
 10
5.99951171875
 20
5.25
 11
5.99951171875
 21
2.25
  0
TEXT
  8
1
 62
7
 40
1.5
  1
A1
  7
STANDARD
 72
1
 10
6.49951171875
 20
8.14282226563
 11
6.49951171875
 21
8.14282226563
  0
TEXT
  8
1
 62
7
 40
1.5
  1
A2
  7
STANDARD
 72
1
 10
6.49951171875
 20
-2.35693359375
 11
6.49951171875
 21
-2.35693359375
  0
ENDBLK
  8
0
  0
BLOCK
  8
0
  2
B14
 70
0
 10
0
 20
0
  0
TEXT
  8
1
 62
7
 40
1.5
  1
K1
  7
STANDARD
 72
1
 10
-2
 20
2.89282226563
 11
-2
 21
2.89282226563
  0
LINE
  8
1
 62
7
 10
0.999755859375
 20
5.3251953125
 11
2.49975585938
 21
2.25
  0
LINE
  8
1
 62
7
 10
2.49975585938
 20
2.25
 11
2.49975585938
 21
0
  0
LINE
  8
1
 62
7
 10
2.49975585938
 20
7.5
 11
2.49975585938
 21
5.25
  0
TEXT
  8
1
 62
7
 40
1.5
  1
3
  7
STANDARD
 72
1
 10
5.24975585938
 20
8.14282226563
 11
5.24975585938
 21
8.14282226563
  0
TEXT
  8
1
 62
7
 40
1.5
  1
4
  7
STANDARD
 72
1
 10
5.24975585938
 20
-2.35693359375
 11
5.24975585938
 21
-2.35693359375
  0
ENDBLK
  8
0
  0
BLOCK
  8
0
  2
B15
 70
0
 10
0
 20
0
  0
TEXT
  8
1
 62
7
 40
1.5
  1
K2
  7
STANDARD
 72
1
 10
-4.5
 20
2.89282226563
 11
-4.5
 21
2.89282226563
  0
LINE
  8
1
 62
7
 10
-2.00024414063
 20
3.52514648438
 11
1.82495117188
 21
3.52514648438
  0
LINE
  8
1
 62
7
 10
-2.00024414063
 20
3.97509765625
 11
1.59985351563
 21
3.97509765625
  0
ARC
  8
1
 62
7
 10
-3.2001953125
 20
3.75
 40
1.185546875
 50
288
 51
431
  0
LINE
  8
1
 62
7
 10
0.999755859375
 20
5.3251953125
 11
2.49975585938
 21
2.25
  0
LINE
  8
1
 62
7
 10
2.49975585938
 20
2.25
 11
2.49975585938
 21
0
  0
LINE
  8
1
 62
7
 10
2.49975585938
 20
7.5
 11
2.49975585938
 21
5.25
  0
TEXT
  8
1
 62
7
 40
1.5
  1
3
  7
STANDARD
 72
1
 10
5.24975585938
 20
8.14282226563
 11
5.24975585938
 21
8.14282226563
  0
TEXT
  8
1
 62
7
 40
1.5
  1
4
  7
STANDARD
 72
1
 10
5.24975585938
 20
-2.35693359375
 11
5.24975585938
 21
-2.35693359375
  0
ENDBLK
  8
0
  0
BLOCK
  8
0
  2
B16
 70
0
 10
0
 20
0
  0
TEXT
  8
1
 62
7
 40
1.5
  1
K3
  7
STANDARD
 72
1
 10
-2
 20
2.89282226563
 11
-2
 21
2.89282226563
  0
LINE
  8
1
 62
7
 10
0.999755859375
 20
5.3251953125
 11
2.49975585938
 21
2.25
  0
LINE
  8
1
 62
7
 10
2.49975585938
 20
2.25
 11
2.49975585938
 21
0
  0
LINE
  8
1
 62
7
 10
2.49975585938
 20
7.5
 11
2.49975585938
 21
5.25
  0
TEXT
  8
1
 62
7
 40
1.5
  1
3
  7
STANDARD
 72
1
 10
5.24975585938
 20
8.14282226563
 11
5.24975585938
 21
8.14282226563
  0
TEXT
  8
1
 62
7
 40
1.5
  1
4
  7
STANDARD
 72
1
 10
5.24975585938
 20
-2.35693359375
 11
5.24975585938
 21
-2.35693359375
  0
ENDBLK
  8
0
  0
BLOCK
  8
0
  2
B17
 70
0
 10
0
 20
0
  0
POLYLINE
  8
TCONNECTIONS
 62
7
 70
1
 66
1
 40
0.375
 41
0.375
  0
VERTEX
  8
1
 10
1.3125
 20
1.5
 42
1
  0
VERTEX
  8
1
 10
1.6875
 20
1.5
 42
1
  0
SEQEND
  8
1
  0
ENDBLK
  8
0
  0
BLOCK
  8
0
  2
B18
 70
0
 10
0
 20
0
  0
POLYLINE
  8
TCONNECTIONS
 62
7
 70
1
 66
1
 40
0.375
 41
0.375
  0
VERTEX
  8
1
 10
1.3125
 20
1.5
 42
1
  0
VERTEX
  8
1
 10
1.6875
 20
1.5
 42
1
  0
SEQEND
  8
1
  0
ENDBLK
  8
0
  0
BLOCK
  8
0
  2
B19
 70
0
 10
0
 20
0
  0
TEXT
  8
1
 62
7
 40
1.5
  1
Y1
  7
STANDARD
 72
1
 10
-2.75
 20
2.89282226563
 11
-2.75
 21
2.89282226563
  0
LINE
  8
1
 62
7
 10
8.24975585938
 20
5.25
 11
9.74975585938
 21
2.25
  0
LINE
  8
1
 62
7
 10
9.74975585938
 20
5.25
 11
8.24975585938
 21
2.25
  0
LINE
  8
1
 62
7
 10
8.24975585938
 20
2.25
 11
9.74975585938
 21
2.25
  0
LINE
  8
1
 62
7
 10
8.24975585938
 20
5.25
 11
9.74975585938
 21
5.25
  0
LINE
  8
1
 62
7
 10
4.49975585938
 20
5.25
 11
1.49975585938
 21
2.25
  0
LINE
  8
1
 62
7
 10
-0.000244140625
 20
5.25
 11
-0.000244140625
 21
2.25
  0
LINE
  8
1
 62
7
 10
5.99975585938
 20
5.25
 11
5.99975585938
 21
2.25
  0
LINE
  8
1
 62
7
 10
-0.000244140625
 20
2.25
 11
5.99975585938
 21
2.25
  0
LINE
  8
1
 62
7
  6
GESTRICHELT
 10
5.99975585938
 20
3.75
 11
8.99975585938
 21
3.75
  0
LINE
  8
1
 62
7
  6
GESTRICHELT
 10
5.99975585938
 20
3.75
 11
8.99975585938
 21
3.75
  0
LINE
  8
1
 62
7
 10
2.99975585938
 20
2.25
 11
2.99975585938
 21
0
  0
LINE
  8
1
 62
7
 10
8.99975585938
 20
2.25
 11
8.99975585938
 21
0.75
  0
LINE
  8
1
 62
7
 10
-0.000244140625
 20
5.25
 11
5.99975585938
 21
5.25
  0
LINE
  8
1
 62
7
 10
2.99975585938
 20
7.5
 11
2.99975585938
 21
5.25
  0
LINE
  8
1
 62
7
 10
8.99975585938
 20
6.75
 11
8.99975585938
 21
5.25
  0
ENDBLK
  8
0
  0
BLOCK
  8
0
  2
B20
 70
0
 10
0
 20
0
  0
TEXT
  8
1
 62
7
 40
1.5
  1
K3
  7
STANDARD
 72
1
 10
-2
 20
2.89282226563
 11
-2
 21
2.89282226563
  0
LINE
  8
1
 62
7
 10
0.999755859375
 20
5.3251953125
 11
2.49975585938
 21
2.25
  0
LINE
  8
1
 62
7
 10
2.49975585938
 20
2.25
 11
2.49975585938
 21
0
  0
LINE
  8
1
 62
7
 10
2.49975585938
 20
7.5
 11
2.49975585938
 21
5.25
  0
TEXT
  8
1
 62
7
 40
1.5
  1
3
  7
STANDARD
 72
1
 10
5.24975585938
 20
8.14282226563
 11
5.24975585938
 21
8.14282226563
  0
TEXT
  8
1
 62
7
 40
1.5
  1
4
  7
STANDARD
 72
1
 10
5.24975585938
 20
-2.35693359375
 11
5.24975585938
 21
-2.35693359375
  0
ENDBLK
  8
0
  0
BLOCK
  8
0
  2
B21
 70
0
 10
0
 20
0
  0
POLYLINE
  8
TCONNECTIONS
 62
7
 70
1
 66
1
 40
0.375
 41
0.375
  0
VERTEX
  8
1
 10
1.3125
 20
1.5
 42
1
  0
VERTEX
  8
1
 10
1.6875
 20
1.5
 42
1
  0
SEQEND
  8
1
  0
ENDBLK
  8
0
  0
BLOCK
  8
0
  2
B22
 70
0
 10
0
 20
0
  0
POLYLINE
  8
TCONNECTIONS
 62
7
 70
1
 66
1
 40
0.375
 41
0.375
  0
VERTEX
  8
1
 10
1.3125
 20
1.5
 42
1
  0
VERTEX
  8
1
 10
1.6875
 20
1.5
 42
1
  0
SEQEND
  8
1
  0
ENDBLK
  8
0
  0
BLOCK
  8
0
  2
B23
 70
0
 10
0
 20
0
  0
LINE
  8
1
 62
7
 10
2
 20
3.75
 11
2.5
 21
2.75
  0
LINE
  8
1
 62
7
 10
2.5
 20
2.75
 11
3
 21
3.75
  0
LINE
  8
1
 62
7
 10
4.5
 20
3.75
 11
3
 21
3.75
  0
CIRCLE
  8
1
 62
7
 10
1.5
 20
5
 40
0.5
  0
LINE
  8
1
 62
7
 10
2
 20
3.75
 11
0.964111328125
 21
3.75
  0
LINE
  8
1
 62
7
 10
4.5
 20
2.25
 11
0.3212890625
 21
2.25
  0
LINE
  8
1
 62
7
 10
0
 20
1.5
 11
1.30297851563
 21
4.54052734375
  0
LINE
  8
1
 62
7
 10
4.5
 20
1.5
 11
10.5
 21
1.5
  0
LINE
  8
1
 62
7
 10
10.5
 20
7.5
 11
4.5
 21
7.5
  0
LINE
  8
1
 62
7
 10
4.5
 20
7.5
 11
4.5
 21
1.5
  0
SOLID
  8
1
 62
7
 10
6
 20
7.5
 11
5.5
 21
5.5
 12
6
 22
7.5
 13
6.5
 23
5.5
  0
SOLID
  8
1
 62
7
 10
9
 20
1.5
 11
9.5
 21
3.5
 12
9
 22
1.5
 13
8.5
 23
3.5
  0
LINE
  8
1
 62
7
 10
10.5
 20
1.5
 11
10.5
 21
7.5
  0
LINE
  8
1
 62
7
 10
6
 20
7.5
 11
6
 21
1.5
  0
LINE
  8
1
 62
7
 10
9
 20
7.5
 11
9
 21
1.5
  0
LINE
  8
1
 62
7
 10
10.5
 20
1.5
 11
16.5
 21
1.5
  0
LINE
  8
1
 62
7
 10
16.5
 20
1.5
 11
16.5
 21
7.5
  0
LINE
  8
1
 62
7
 10
16.5
 20
7.5
 11
10.5
 21
7.5
  0
LINE
  8
1
 62
7
 10
10.5
 20
7.5
 11
10.5
 21
1.5
  0
LINE
  8
1
 62
7
 10
11.5
 20
6
 11
12.5
 21
6
  0
LINE
  8
1
 62
7
 10
14.5
 20
6
 11
15.5
 21
6
  0
LINE
  8
1
 62
7
 10
11.5
 20
3
 11
12.5
 21
3
  0
LINE
  8
1
 62
7
 10
14.5
 20
3
 11
15.5
 21
3
  0
LINE
  8
1
 62
7
 10
12
 20
7.5
 11
12
 21
6
  0
LINE
  8
1
 62
7
 10
15
 20
7.5
 11
15
 21
6
  0
LINE
  8
1
 62
7
 10
12
 20
3
 11
12
 21
1.5
  0
LINE
  8
1
 62
7
 10
15
 20
3
 11
15
 21
1.5
  0
LINE
  8
1
 62
7
 10
21
 20
1.5
 11
18
 21
7.5
  0
SOLID
  8
1
 62
7
 10
21
 20
1.5
 11
20.5495605469
 21
3.51025390625
 12
21
 22
1.5
 13
19.6596679688
 23
3.07006835938
  0
LINE
  8
1
 62
7
 10
18
 20
1.5
 11
21
 21
7.5
  0
SOLID
  8
1
 62
7
 10
21
 20
7.5
 11
20.5495605469
 21
5.490234375
 12
21
 22
7.5
 13
19.6596679688
 23
5.93041992188
  0
LINE
  8
1
 62
7
 10
16.5
 20
1.5
 11
22.5
 21
1.5
  0
LINE
  8
1
 62
7
 10
22.5
 20
1.5
 11
22.5
 21
7.5
  0
LINE
  8
1
 62
7
 10
22.5
 20
7.5
 11
16.5
 21
7.5
  0
LINE
  8
1
 62
7
 10
16.5
 20
7.5
 11
16.5
 21
1.5
  0
TEXT
  8
1
 62
7
 40
1.5
  1
A
  7
STANDARD
 72
1
 10
9.5
 20
9.14282226563
 11
9.5
 21
9.14282226563
  0
LINE
  8
1
 62
7
 10
12
 20
9
 11
12
 21
7.5
  0
TEXT
  8
1
 62
7
 40
1.5
  1
B
  7
STANDARD
 72
1
 10
18
 20
9.14282226563
 11
18
 21
9.14282226563
  0
LINE
  8
1
 62
7
 10
15
 20
9
 11
15
 21
7.5
  0
TEXT
  8
1
 62
7
 40
1.5
  1
P
  7
STANDARD
 72
1
 10
9.5
 20
-1.85693359375
 11
9.5
 21
-1.85693359375
  0
LINE
  8
1
 62
7
 10
12
 20
0
 11
12
 21
1.5
  0
TEXT
  8
1
 62
7
 40
1.5
  1
T
  7
STANDARD
 72
1
 10
18
 20
-1.85693359375
 11
18
 21
-1.85693359375
  0
LINE
  8
1
 62
7
 10
15
 20
0
 11
15
 21
1.5
  0
ENDBLK
  8
0
  0
BLOCK
  8
0
  2
B24
 70
0
 10
0
 20
0
  0
LINE
  8
1
 62
7
 10
1
 20
2
 11
1
 21
0
  0
LINE
  8
1
 62
7
 10
13
 20
2
 11
13
 21
0
  0
LINE
  8
1
 62
7
 10
14
 20
8
 11
14
 21
5.75
  0
LINE
  8
1
 62
7
 10
14
 20
4.25
 11
14
 21
2
  0
LINE
  8
1
 62
7
 10
0
 20
8
 11
0
 21
2
  0
LINE
  8
1
 62
7
 10
0
 20
8
 11
14
 21
8
  0
LINE
  8
1
 62
7
 10
0
 20
2
 11
14
 21
2
  0
LINE
  8
1
 62
7
 10
18.8498535156
 20
4.25
 11
4.09985351563
 21
4.25
  0
LINE
  8
1
 62
7
 10
18.8498535156
 20
5.75
 11
18.8498535156
 21
4.25
  0
LINE
  8
1
 62
7
 10
4.09985351563
 20
5.75
 11
18.8498535156
 21
5.75
  0
LINE
  8
1
 62
7
 10
1.09985351563
 20
8
 11
1.09985351563
 21
2
  0
LINE
  8
1
 62
7
 10
4.09985351563
 20
8
 11
4.09985351563
 21
2
  0
SOLID
  8
1
 62
7
 10
1.59985351563
 20
3.25
 11
1.59985351563
 21
6.75
 12
2.34985351563
 22
3.25
 13
2.34985351563
 23
6.75
  0
SOLID
  8
1
 62
7
 10
1.59985351563
 20
6
 11
1.59985351563
 21
6.75
 12
3.34985351563
 22
6
 13
3.34985351563
 23
6.75
  0
SOLID
  8
1
 62
7
 10
1.59985351563
 20
3.25
 11
1.59985351563
 21
4
 12
3.34985351563
 22
3.25
 13
3.34985351563
 23
4
  0
ENDBLK
  8
0
  0
BLOCK
  8
0
  2
B25
 70
0
 10
0
 20
0
  0
LINE
  8
1
 62
7
 10
0.499755859375
 20
0.5
 11
3.49975585938
 21
0.5
  0
SOLID
  8
1
 62
7
 10
1.99975585938
 20
2.75
 11
0.499755859375
 21
0.5
 12
1.99975585938
 22
2.75
 13
3.49975585938
 23
0.5
  0
LINE
  8
1
 62
7
 10
1.99975585938
 20
2.75
 11
0.499755859375
 21
0.5
  0
LINE
  8
1
 62
7
 10
1.99975585938
 20
2.75
 11
3.49975585938
 21
0.5
  0
LINE
  8
1
 62
7
 10
1.99975585938
 20
3.5
 11
1.99975585938
 21
2.75
  0
ENDBLK
  8
0
  0
BLOCK
  8
0
  2
B26
 70
0
 10
0
 20
0
  0
LINE
  8
1
 62
7
 10
1.99975585938
 20
3.5
 11
1.99975585938
 21
0.5
  0
LINE
  8
1
 62
7
 10
0.499755859375
 20
0.5
 11
3.49975585938
 21
0.5
  0
LINE
  8
1
 62
7
 10
0.499755859375
 20
2
 11
0.499755859375
 21
0.5
  0
LINE
  8
1
 62
7
 10
3.49975585938
 20
2
 11
3.49975585938
 21
0.5
  0
ENDBLK
  8
0
  0
BLOCK
  8
0
  2
B27
 70
0
 10
0
 20
0
  0
TEXT
  8
TEXT
 62
7
 40
2
  1
√÷
  7
STANDARD
 72
1
 10
2.5
 20
1.73193359375
 11
2.5
 21
1.73193359375
  0
ENDBLK
  8
0
  0
BLOCK
  8
0
  2
B28
 70
0
 10
0
 20
0
  0
CIRCLE
  8
1
 62
7
 10
1.060546875
 20
3.1611328125
 40
0.75
  0
LINE
  8
1
 62
7
 10
2.12109375
 20
3.1611328125
 11
1.060546875
 21
2.10034179688
  0
LINE
  8
1
 62
7
 10
0
 20
3.1611328125
 11
1.060546875
 21
2.10034179688
  0
LINE
  8
1
 62
7
 10
1.060546875
 20
6
 11
1.060546875
 21
3.9150390625
  0
LINE
  8
1
 62
7
 10
1.060546875
 20
2.10034179688
 11
1.060546875
 21
0
  0
TEXT
  8
1
 62
7
 40
1.5
  1
B
  7
STANDARD
 72
1
 10
4.060546875
 20
5.89282226563
 11
4.060546875
 21
5.89282226563
  0
TEXT
  8
1
 62
7
 40
1.5
  1
A
  7
STANDARD
 72
1
 10
3.810546875
 20
-1.85693359375
 11
3.810546875
 21
-1.85693359375
  0
ENDBLK
  8
0
  0
BLOCK
  8
0
  2
B29
 70
0
 10
0
 20
0
  0
LINE
  8
1
 62
7
 10
1.5
 20
21
 11
4.5
 21
21
  0
LINE
  8
1
 62
7
 10
4.5
 20
18
 11
1.5
 21
19.5
  0
LINE
  8
1
 62
7
 10
1.5
 20
16.5
 11
1.5
 21
21
  0
LINE
  8
1
 62
7
 10
4.5
 20
21
 11
4.5
 21
16.5
  0
LINE
  8
1
 62
7
 10
1.5
 20
16.5
 11
1.5
 21
10.5
  0
LINE
  8
1
 62
7
 10
1.5
 20
10.5
 11
7.5
 21
10.5
  0
LINE
  8
1
 62
7
 10
7.5
 20
10.5
 11
7.5
 21
16.5
  0
LINE
  8
1
 62
7
 10
7.5
 20
16.5
 11
1.5
 21
16.5
  0
LINE
  8
1
 62
7
 10
3
 20
14
 11
3
 21
13
  0
LINE
  8
1
 62
7
 10
3
 20
13.5
 11
1.5
 21
13.5
  0
LINE
  8
1
 62
7
 10
6
 20
14
 11
6
 21
13
  0
LINE
  8
1
 62
7
 10
6
 20
13.5
 11
7.5
 21
13.5
  0
LINE
  8
1
 62
7
 10
1.5
 20
10.5
 11
1.5
 21
4.5
  0
LINE
  8
1
 62
7
 10
1.5
 20
4.5
 11
7.5
 21
4.5
  0
LINE
  8
1
 62
7
 10
7.5
 20
4.5
 11
7.5
 21
10.5
  0
LINE
  8
1
 62
7
 10
7.5
 20
10.5
 11
1.5
 21
10.5
  0
SOLID
  8
1
 62
7
 10
7.5
 20
7.5
 11
5.5
 21
8
 12
7.5
 22
7.5
 13
5.5
 23
7
  0
LINE
  8
1
 62
7
 10
7.5
 20
7.5
 11
1.5
 21
7.5
  0
LINE
  8
1
 62
7
 10
3
 20
4.5
 11
4.375
 21
4.25
  0
LINE
  8
1
 62
7
 10
4.375
 20
4.25
 11
1.625
 21
3.75
  0
LINE
  8
1
 62
7
 10
1.625
 20
3.75
 11
4.375
 21
3.25
  0
LINE
  8
1
 62
7
 10
4.375
 20
3.25
 11
1.625
 21
2.75
  0
LINE
  8
1
 62
7
 10
1.625
 20
2.75
 11
4.375
 21
2.25
  0
LINE
  8
1
 62
7
 10
4.375
 20
2.25
 11
1.625
 21
1.75
  0
LINE
  8
1
 62
7
 10
1.625
 20
1.75
 11
3
 21
1.5
  0
TEXT
  8
1
 62
7
 40
1.5
  1
A
  7
STANDARD
 72
1
 10
9.25
 20
8.89282226563
 11
9.25
 21
8.89282226563
  0
LINE
  8
1
 62
7
 10
9
 20
7.5
 11
7.5
 21
7.5
  0
TEXT
  8
1
 62
7
 40
1.5
  1
P
  7
STANDARD
 72
1
 10
-0.75
 20
8.89282226563
 11
-0.75
 21
8.89282226563
  0
LINE
  8
1
 62
7
 10
0
 20
7.5
 11
1.5
 21
7.5
  0
TEXT
  8
1
 62
7
 40
1.5
  1
Y1
  7
STANDARD
 72
1
 10
2.14282226563
 20
24
 11
2.14282226563
 21
24
 50
270
  0
ENDBLK
  8
0
  0
BLOCK
  8
0
  2
B30
 70
0
 10
0
 20
0
  0
SOLID
  8
1
 62
7
 10
3.9599609375
 20
-2.625
 11
4.84008789063
 21
-2.625
 12
3.9599609375
 22
-3.62524414063
 13
4.84008789063
 23
-3.62524414063
  0
TEXT
  8
1
 62
7
 40
1.5
  1
A0
  7
STANDARD
 72
1
 10
4.39990234375
 20
-0.48193359375
 11
4.39990234375
 21
-0.48193359375
  0
ENDBLK
  8
0
  0
BLOCK
  8
0
  2
B31
 70
0
 10
0
 20
0
  0
POLYLINE
  8
TCONNECTIONS
 62
7
 70
1
 66
1
 40
0.375
 41
0.375
  0
VERTEX
  8
1
 10
1.3125
 20
1.5
 42
1
  0
VERTEX
  8
1
 10
1.6875
 20
1.5
 42
1
  0
SEQEND
  8
1
  0
ENDBLK
  8
0
  0
BLOCK
  8
0
  2
B32
 70
0
 10
0
 20
0
  0
POLYLINE
  8
TCONNECTIONS
 62
7
 70
1
 66
1
 40
0.375
 41
0.375
  0
VERTEX
  8
1
 10
1.3125
 20
1.5
 42
1
  0
VERTEX
  8
1
 10
1.6875
 20
1.5
 42
1
  0
SEQEND
  8
1
  0
ENDBLK
  8
0
  0
BLOCK
  8
0
  2
B33
 70
0
 10
0
 20
0
  0
POLYLINE
  8
TCONNECTIONS
 62
7
 70
1
 66
1
 40
0.375
 41
0.375
  0
VERTEX
  8
1
 10
1.3125
 20
1.5
 42
1
  0
VERTEX
  8
1
 10
1.6875
 20
1.5
 42
1
  0
SEQEND
  8
1
  0
ENDBLK
  8
0
  0
BLOCK
  8
0
  2
B34
 70
0
 10
0
 20
0
  0
POLYLINE
  8
TCONNECTIONS
 62
7
 70
1
 66
1
 40
0.375
 41
0.375
  0
VERTEX
  8
1
 10
1.3125
 20
1.5
 42
1
  0
VERTEX
  8
1
 10
1.6875
 20
1.5
 42
1
  0
SEQEND
  8
1
  0
ENDBLK
  8
0
  0
BLOCK
  8
0
  2
B35
 70
0
 10
0
 20
0
  0
CIRCLE
  8
1
 62
7
 10
2.8388671875
 20
1.060546875
 40
0.75
  0
LINE
  8
1
 62
7
 10
2.8388671875
 20
2.12109375
 11
3.89965820313
 21
1.060546875
  0
LINE
  8
1
 62
7
 10
2.8388671875
 20
0
 11
3.89965820313
 21
1.060546875
  0
LINE
  8
1
 62
7
 10
0
 20
1.060546875
 11
2.0849609375
 21
1.060546875
  0
LINE
  8
1
 62
7
 10
3.89965820313
 20
1.060546875
 11
6
 21
1.060546875
  0
TEXT
  8
1
 62
7
 40
1.5
  1
B
  7
STANDARD
 72
1
 10
-0.75
 20
3.20336914063
 11
-0.75
 21
3.20336914063
  0
TEXT
  8
1
 62
7
 40
1.5
  1
A
  7
STANDARD
 72
1
 10
7
 20
2.95336914063
 11
7
 21
2.95336914063
  0
ENDBLK
  8
0
  0
BLOCK
  8
0
  2
B36
 70
0
 10
0
 20
0
  0
ARC
  8
1
 62
7
 10
-0.098876953125
 20
5.24975585938
 40
2.40112304688
 50
308
 51
411
  0
ARC
  8
1
 62
7
 10
5.15112304688
 20
5.24975585938
 40
2.40112304688
 50
128
 51
231
  0
LINE
  8
1
 62
7
 10
0.405029296875
 20
7.37084960938
 11
0.935302734375
 21
6.41650390625
  0
LINE
  8
1
 62
7
 10
0.935302734375
 20
6.41650390625
 11
1.359375
 21
6.84057617188
  0
LINE
  8
1
 62
7
 10
0.405029296875
 20
7.37084960938
 11
1.359375
 21
6.84057617188
  0
SOLID
  8
1
 62
7
 10
0.405029296875
 20
7.37084960938
 11
0.935302734375
 21
6.41650390625
 12
0.405029296875
 22
7.37084960938
 13
1.359375
 23
6.84057617188
  0
LINE
  8
1
 62
7
 10
0.405029296875
 20
7.37084960938
 11
4.11694335938
 21
3.65869140625
  0
LINE
  8
1
 62
7
 10
2.52612304688
 20
-0.000244140625
 11
2.52612304688
 21
10.4997558594
  0
TEXT
  8
1
 62
7
 40
1.5
  1
A
  7
STANDARD
 72
1
 10
0.026123046875
 20
-1.60717773438
 11
0.026123046875
 21
-1.60717773438
  0
TEXT
  8
1
 62
7
 40
1.5
  1
B
  7
STANDARD
 72
1
 10
0.026123046875
 20
10.892578125
 11
0.026123046875
 21
10.892578125
  0
ENDBLK
  8
0
  0
BLOCK
  8
0
  2
B37
 70
0
 10
0
 20
0
  0
ARC
  8
1
 62
7
 10
-0.098876953125
 20
5.24975585938
 40
2.40112304688
 50
308
 51
411
  0
ARC
  8
1
 62
7
 10
5.15112304688
 20
5.24975585938
 40
2.40112304688
 50
128
 51
231
  0
LINE
  8
1
 62
7
 10
0.405029296875
 20
7.37084960938
 11
0.935302734375
 21
6.41650390625
  0
LINE
  8
1
 62
7
 10
0.935302734375
 20
6.41650390625
 11
1.359375
 21
6.84057617188
  0
LINE
  8
1
 62
7
 10
0.405029296875
 20
7.37084960938
 11
1.359375
 21
6.84057617188
  0
SOLID
  8
1
 62
7
 10
0.405029296875
 20
7.37084960938
 11
0.935302734375
 21
6.41650390625
 12
0.405029296875
 22
7.37084960938
 13
1.359375
 23
6.84057617188
  0
LINE
  8
1
 62
7
 10
0.405029296875
 20
7.37084960938
 11
4.11694335938
 21
3.65869140625
  0
LINE
  8
1
 62
7
 10
2.52612304688
 20
-0.000244140625
 11
2.52612304688
 21
10.4997558594
  0
TEXT
  8
1
 62
7
 40
1.5
  1
A
  7
STANDARD
 72
1
 10
0.026123046875
 20
-1.60717773438
 11
0.026123046875
 21
-1.60717773438
  0
TEXT
  8
1
 62
7
 40
1.5
  1
B
  7
STANDARD
 72
1
 10
0.026123046875
 20
10.892578125
 11
0.026123046875
 21
10.892578125
  0
ENDBLK
  8
0
  0
BLOCK
  8
0
  2
B38
 70
0
 10
0
 20
0
  0
LINE
  8
1
 62
7
 10
2
 20
3.75
 11
2.5
 21
2.75
  0
LINE
  8
1
 62
7
 10
2.5
 20
2.75
 11
3
 21
3.75
  0
LINE
  8
1
 62
7
 10
4.5
 20
3.75
 11
3
 21
3.75
  0
CIRCLE
  8
1
 62
7
 10
1.5
 20
5
 40
0.5
  0
LINE
  8
1
 62
7
 10
2
 20
3.75
 11
0.964111328125
 21
3.75
  0
LINE
  8
1
 62
7
 10
4.5
 20
2.25
 11
0.3212890625
 21
2.25
  0
LINE
  8
1
 62
7
 10
0
 20
1.5
 11
1.30297851563
 21
4.54052734375
  0
LINE
  8
1
 62
7
 10
4.5
 20
1.5
 11
10.5
 21
1.5
  0
LINE
  8
1
 62
7
 10
10.5
 20
7.5
 11
4.5
 21
7.5
  0
LINE
  8
1
 62
7
 10
4.5
 20
7.5
 11
4.5
 21
1.5
  0
SOLID
  8
1
 62
7
 10
6
 20
7.5
 11
5.5
 21
5.5
 12
6
 22
7.5
 13
6.5
 23
5.5
  0
SOLID
  8
1
 62
7
 10
9
 20
1.5
 11
9.5
 21
3.5
 12
9
 22
1.5
 13
8.5
 23
3.5
  0
LINE
  8
1
 62
7
 10
10.5
 20
1.5
 11
10.5
 21
7.5
  0
LINE
  8
1
 62
7
 10
6
 20
7.5
 11
6
 21
1.5
  0
LINE
  8
1
 62
7
 10
9
 20
7.5
 11
9
 21
1.5
  0
LINE
  8
1
 62
7
 10
10.5
 20
1.5
 11
16.5
 21
1.5
  0
LINE
  8
1
 62
7
 10
16.5
 20
1.5
 11
16.5
 21
7.5
  0
LINE
  8
1
 62
7
 10
16.5
 20
7.5
 11
10.5
 21
7.5
  0
LINE
  8
1
 62
7
 10
10.5
 20
7.5
 11
10.5
 21
1.5
  0
LINE
  8
1
 62
7
 10
11.5
 20
6
 11
12.5
 21
6
  0
LINE
  8
1
 62
7
 10
14.5
 20
6
 11
15.5
 21
6
  0
LINE
  8
1
 62
7
 10
11.5
 20
3
 11
12.5
 21
3
  0
LINE
  8
1
 62
7
 10
14.5
 20
3
 11
15.5
 21
3
  0
LINE
  8
1
 62
7
 10
12
 20
7.5
 11
12
 21
6
  0
LINE
  8
1
 62
7
 10
15
 20
7.5
 11
15
 21
6
  0
LINE
  8
1
 62
7
 10
12
 20
3
 11
12
 21
1.5
  0
LINE
  8
1
 62
7
 10
15
 20
3
 11
15
 21
1.5
  0
LINE
  8
1
 62
7
 10
21
 20
1.5
 11
18
 21
7.5
  0
SOLID
  8
1
 62
7
 10
21
 20
1.5
 11
20.5495605469
 21
3.51025390625
 12
21
 22
1.5
 13
19.6596679688
 23
3.07006835938
  0
LINE
  8
1
 62
7
 10
18
 20
1.5
 11
21
 21
7.5
  0
SOLID
  8
1
 62
7
 10
21
 20
7.5
 11
20.5495605469
 21
5.490234375
 12
21
 22
7.5
 13
19.6596679688
 23
5.93041992188
  0
LINE
  8
1
 62
7
 10
16.5
 20
1.5
 11
22.5
 21
1.5
  0
LINE
  8
1
 62
7
 10
22.5
 20
1.5
 11
22.5
 21
7.5
  0
LINE
  8
1
 62
7
 10
22.5
 20
7.5
 11
16.5
 21
7.5
  0
LINE
  8
1
 62
7
 10
16.5
 20
7.5
 11
16.5
 21
1.5
  0
TEXT
  8
1
 62
7
 40
1.5
  1
A
  7
STANDARD
 72
1
 10
9.5
 20
9.14282226563
 11
9.5
 21
9.14282226563
  0
LINE
  8
1
 62
7
 10
12
 20
9
 11
12
 21
7.5
  0
TEXT
  8
1
 62
7
 40
1.5
  1
B
  7
STANDARD
 72
1
 10
18
 20
9.14282226563
 11
18
 21
9.14282226563
  0
LINE
  8
1
 62
7
 10
15
 20
9
 11
15
 21
7.5
  0
TEXT
  8
1
 62
7
 40
1.5
  1
P
  7
STANDARD
 72
1
 10
9.5
 20
-1.85693359375
 11
9.5
 21
-1.85693359375
  0
LINE
  8
1
 62
7
 10
12
 20
0
 11
12
 21
1.5
  0
TEXT
  8
1
 62
7
 40
1.5
  1
T
  7
STANDARD
 72
1
 10
18
 20
-1.85693359375
 11
18
 21
-1.85693359375
  0
LINE
  8
1
 62
7
 10
15
 20
0
 11
15
 21
1.5
  0
ENDBLK
  8
0
  0
BLOCK
  8
0
  2
B39
 70
0
 10
0
 20
0
  0
LINE
  8
1
 62
7
 10
1
 20
2
 11
1
 21
0
  0
LINE
  8
1
 62
7
 10
13
 20
2
 11
13
 21
0
  0
LINE
  8
1
 62
7
 10
14
 20
8
 11
14
 21
5.75
  0
LINE
  8
1
 62
7
 10
14
 20
4.25
 11
14
 21
2
  0
LINE
  8
1
 62
7
 10
0
 20
8
 11
0
 21
2
  0
LINE
  8
1
 62
7
 10
0
 20
8
 11
14
 21
8
  0
LINE
  8
1
 62
7
 10
0
 20
2
 11
14
 21
2
  0
LINE
  8
1
 62
7
 10
18.8498535156
 20
4.25
 11
4.09985351563
 21
4.25
  0
LINE
  8
1
 62
7
 10
18.8498535156
 20
5.75
 11
18.8498535156
 21
4.25
  0
LINE
  8
1
 62
7
 10
4.09985351563
 20
5.75
 11
18.8498535156
 21
5.75
  0
LINE
  8
1
 62
7
 10
1.09985351563
 20
8
 11
1.09985351563
 21
2
  0
LINE
  8
1
 62
7
 10
4.09985351563
 20
8
 11
4.09985351563
 21
2
  0
SOLID
  8
1
 62
7
 10
1.59985351563
 20
3.25
 11
1.59985351563
 21
6.75
 12
2.34985351563
 22
3.25
 13
2.34985351563
 23
6.75
  0
SOLID
  8
1
 62
7
 10
1.59985351563
 20
6
 11
1.59985351563
 21
6.75
 12
3.34985351563
 22
6
 13
3.34985351563
 23
6.75
  0
SOLID
  8
1
 62
7
 10
1.59985351563
 20
3.25
 11
1.59985351563
 21
4
 12
3.34985351563
 22
3.25
 13
3.34985351563
 23
4
  0
ENDBLK
  8
0
  0
BLOCK
  8
0
  2
B40
 70
0
 10
0
 20
0
  0
LINE
  8
1
 62
7
 10
0.499755859375
 20
0.5
 11
3.49975585938
 21
0.5
  0
SOLID
  8
1
 62
7
 10
1.99975585938
 20
2.75
 11
0.499755859375
 21
0.5
 12
1.99975585938
 22
2.75
 13
3.49975585938
 23
0.5
  0
LINE
  8
1
 62
7
 10
1.99975585938
 20
2.75
 11
0.499755859375
 21
0.5
  0
LINE
  8
1
 62
7
 10
1.99975585938
 20
2.75
 11
3.49975585938
 21
0.5
  0
LINE
  8
1
 62
7
 10
1.99975585938
 20
3.5
 11
1.99975585938
 21
2.75
  0
ENDBLK
  8
0
  0
BLOCK
  8
0
  2
B41
 70
0
 10
0
 20
0
  0
LINE
  8
1
 62
7
 10
1.99975585938
 20
3.5
 11
1.99975585938
 21
0.5
  0
LINE
  8
1
 62
7
 10
0.499755859375
 20
0.5
 11
3.49975585938
 21
0.5
  0
LINE
  8
1
 62
7
 10
0.499755859375
 20
2
 11
0.499755859375
 21
0.5
  0
LINE
  8
1
 62
7
 10
3.49975585938
 20
2
 11
3.49975585938
 21
0.5
  0
ENDBLK
  8
0
  0
BLOCK
  8
0
  2
B42
 70
0
 10
0
 20
0
  0
TEXT
  8
TEXT
 62
7
 40
2
  1
√÷
  7
STANDARD
 72
1
 10
2.5
 20
1.73193359375
 11
2.5
 21
1.73193359375
  0
ENDBLK
  8
0
  0
BLOCK
  8
0
  2
B43
 70
0
 10
0
 20
0
  0
ARC
  8
1
 62
7
 10
-0.098876953125
 20
5.24975585938
 40
2.40112304688
 50
308
 51
411
  0
ARC
  8
1
 62
7
 10
5.15112304688
 20
5.24975585938
 40
2.40112304688
 50
128
 51
231
  0
LINE
  8
1
 62
7
 10
0.405029296875
 20
7.37084960938
 11
0.935302734375
 21
6.41650390625
  0
LINE
  8
1
 62
7
 10
0.935302734375
 20
6.41650390625
 11
1.359375
 21
6.84057617188
  0
LINE
  8
1
 62
7
 10
0.405029296875
 20
7.37084960938
 11
1.359375
 21
6.84057617188
  0
SOLID
  8
1
 62
7
 10
0.405029296875
 20
7.37084960938
 11
0.935302734375
 21
6.41650390625
 12
0.405029296875
 22
7.37084960938
 13
1.359375
 23
6.84057617188
  0
LINE
  8
1
 62
7
 10
0.405029296875
 20
7.37084960938
 11
4.11694335938
 21
3.65869140625
  0
LINE
  8
1
 62
7
 10
2.52612304688
 20
-0.000244140625
 11
2.52612304688
 21
10.4997558594
  0
TEXT
  8
1
 62
7
 40
1.5
  1
A
  7
STANDARD
 72
1
 10
0.026123046875
 20
-1.60717773438
 11
0.026123046875
 21
-1.60717773438
  0
TEXT
  8
1
 62
7
 40
1.5
  1
B
  7
STANDARD
 72
1
 10
0.026123046875
 20
10.892578125
 11
0.026123046875
 21
10.892578125
  0
ENDBLK
  8
0
  0
BLOCK
  8
0
  2
B44
 70
0
 10
0
 20
0
  0
CIRCLE
  8
1
 62
7
 10
1.060546875
 20
3.1611328125
 40
0.75
  0
LINE
  8
1
 62
7
 10
2.12109375
 20
3.1611328125
 11
1.060546875
 21
2.10034179688
  0
LINE
  8
1
 62
7
 10
0
 20
3.1611328125
 11
1.060546875
 21
2.10034179688
  0
LINE
  8
1
 62
7
 10
1.060546875
 20
6
 11
1.060546875
 21
3.9150390625
  0
LINE
  8
1
 62
7
 10
1.060546875
 20
2.10034179688
 11
1.060546875
 21
0
  0
TEXT
  8
1
 62
7
 40
1.5
  1
B
  7
STANDARD
 72
1
 10
4.060546875
 20
5.89282226563
 11
4.060546875
 21
5.89282226563
  0
TEXT
  8
1
 62
7
 40
1.5
  1
A
  7
STANDARD
 72
1
 10
3.810546875
 20
-1.85693359375
 11
3.810546875
 21
-1.85693359375
  0
ENDBLK
  8
0
  0
BLOCK
  8
0
  2
B45
 70
0
 10
0
 20
0
  0
LINE
  8
1
 62
7
 10
1.5
 20
21
 11
4.5
 21
21
  0
LINE
  8
1
 62
7
 10
4.5
 20
18
 11
1.5
 21
19.5
  0
LINE
  8
1
 62
7
 10
1.5
 20
16.5
 11
1.5
 21
21
  0
LINE
  8
1
 62
7
 10
4.5
 20
21
 11
4.5
 21
16.5
  0
LINE
  8
1
 62
7
 10
1.5
 20
16.5
 11
1.5
 21
10.5
  0
LINE
  8
1
 62
7
 10
1.5
 20
10.5
 11
7.5
 21
10.5
  0
LINE
  8
1
 62
7
 10
7.5
 20
10.5
 11
7.5
 21
16.5
  0
LINE
  8
1
 62
7
 10
7.5
 20
16.5
 11
1.5
 21
16.5
  0
LINE
  8
1
 62
7
 10
3
 20
14
 11
3
 21
13
  0
LINE
  8
1
 62
7
 10
3
 20
13.5
 11
1.5
 21
13.5
  0
LINE
  8
1
 62
7
 10
6
 20
14
 11
6
 21
13
  0
LINE
  8
1
 62
7
 10
6
 20
13.5
 11
7.5
 21
13.5
  0
LINE
  8
1
 62
7
 10
1.5
 20
10.5
 11
1.5
 21
4.5
  0
LINE
  8
1
 62
7
 10
1.5
 20
4.5
 11
7.5
 21
4.5
  0
LINE
  8
1
 62
7
 10
7.5
 20
4.5
 11
7.5
 21
10.5
  0
LINE
  8
1
 62
7
 10
7.5
 20
10.5
 11
1.5
 21
10.5
  0
SOLID
  8
1
 62
7
 10
7.5
 20
7.5
 11
5.5
 21
8
 12
7.5
 22
7.5
 13
5.5
 23
7
  0
LINE
  8
1
 62
7
 10
7.5
 20
7.5
 11
1.5
 21
7.5
  0
LINE
  8
1
 62
7
 10
3
 20
4.5
 11
4.375
 21
4.25
  0
LINE
  8
1
 62
7
 10
4.375
 20
4.25
 11
1.625
 21
3.75
  0
LINE
  8
1
 62
7
 10
1.625
 20
3.75
 11
4.375
 21
3.25
  0
LINE
  8
1
 62
7
 10
4.375
 20
3.25
 11
1.625
 21
2.75
  0
LINE
  8
1
 62
7
 10
1.625
 20
2.75
 11
4.375
 21
2.25
  0
LINE
  8
1
 62
7
 10
4.375
 20
2.25
 11
1.625
 21
1.75
  0
LINE
  8
1
 62
7
 10
1.625
 20
1.75
 11
3
 21
1.5
  0
TEXT
  8
1
 62
7
 40
1.5
  1
A
  7
STANDARD
 72
1
 10
9.25
 20
8.89282226563
 11
9.25
 21
8.89282226563
  0
LINE
  8
1
 62
7
 10
9
 20
7.5
 11
7.5
 21
7.5
  0
TEXT
  8
1
 62
7
 40
1.5
  1
P
  7
STANDARD
 72
1
 10
-0.75
 20
8.89282226563
 11
-0.75
 21
8.89282226563
  0
LINE
  8
1
 62
7
 10
0
 20
7.5
 11
1.5
 21
7.5
  0
TEXT
  8
1
 62
7
 40
1.5
  1
Y1
  7
STANDARD
 72
1
 10
2.14282226563
 20
24
 11
2.14282226563
 21
24
 50
270
  0
ENDBLK
  8
0
  0
BLOCK
  8
0
  2
B46
 70
0
 10
0
 20
0
  0
SOLID
  8
1
 62
7
 10
3.9599609375
 20
-2.625
 11
4.84008789063
 21
-2.625
 12
3.9599609375
 22
-3.62524414063
 13
4.84008789063
 23
-3.62524414063
  0
TEXT
  8
1
 62
7
 40
1.5
  1
A0
  7
STANDARD
 72
1
 10
4.39990234375
 20
-0.48193359375
 11
4.39990234375
 21
-0.48193359375
  0
ENDBLK
  8
0
  0
BLOCK
  8
0
  2
B47
 70
0
 10
0
 20
0
  0
POLYLINE
  8
TCONNECTIONS
 62
7
 70
1
 66
1
 40
0.375
 41
0.375
  0
VERTEX
  8
1
 10
1.3125
 20
1.5
 42
1
  0
VERTEX
  8
1
 10
1.6875
 20
1.5
 42
1
  0
SEQEND
  8
1
  0
ENDBLK
  8
0
  0
BLOCK
  8
0
  2
B48
 70
0
 10
0
 20
0
  0
POLYLINE
  8
TCONNECTIONS
 62
7
 70
1
 66
1
 40
0.375
 41
0.375
  0
VERTEX
  8
1
 10
1.3125
 20
1.5
 42
1
  0
VERTEX
  8
1
 10
1.6875
 20
1.5
 42
1
  0
SEQEND
  8
1
  0
ENDBLK
  8
0
  0
BLOCK
  8
0
  2
B49
 70
0
 10
0
 20
0
  0
POLYLINE
  8
TCONNECTIONS
 62
7
 70
1
 66
1
 40
0.375
 41
0.375
  0
VERTEX
  8
1
 10
1.3125
 20
1.5
 42
1
  0
VERTEX
  8
1
 10
1.6875
 20
1.5
 42
1
  0
SEQEND
  8
1
  0
ENDBLK
  8
0
  0
BLOCK
  8
0
  2
B50
 70
0
 10
0
 20
0
  0
POLYLINE
  8
TCONNECTIONS
 62
7
 70
1
 66
1
 40
0.375
 41
0.375
  0
VERTEX
  8
1
 10
1.3125
 20
1.5
 42
1
  0
VERTEX
  8
1
 10
1.6875
 20
1.5
 42
1
  0
SEQEND
  8
1
  0
ENDBLK
  8
0
  0
BLOCK
  8
0
  2
B51
 70
0
 10
0
 20
0
  0
TEXT
  8
TCONNECTIONS
 62
7
 40
1.5
  1
1
  7
STANDARD
 72
1
 10
27
 20
-37.8569335938
 11
27
 21
-37.8569335938
  0
TEXT
  8
TCONNECTIONS
 62
7
 40
1.5
  1
2
  7
STANDARD
 72
1
 10
40.5
 20
-37.8569335938
 11
40.5
 21
-37.8569335938
  0
TEXT
  8
TCONNECTIONS
 62
7
 40
1.5
  1
3
  7
STANDARD
 72
1
 10
64.5
 20
-37.8569335938
 11
64.5
 21
-37.8569335938
  0
TEXT
  8
TCONNECTIONS
 62
7
 40
1.5
  1
4
  7
STANDARD
 72
1
 10
78
 20
-37.8569335938
 11
78
 21
-37.8569335938
  0
TEXT
  8
TCONNECTIONS
 62
7
 40
1.5
  1
5
  7
STANDARD
 72
1
 10
84
 20
-37.8569335938
 11
84
 21
-37.8569335938
  0
TEXT
  8
TCONNECTIONS
 62
7
 40
1.5
  1
6
  7
STANDARD
 72
1
 10
90
 20
-37.8569335938
 11
90
 21
-37.8569335938
  0
TEXT
  8
TCONNECTIONS
 62
7
 40
1.5
  1
7
  7
STANDARD
 72
1
 10
106.5
 20
-37.8569335938
 11
106.5
 21
-37.8569335938
  0
LINE
  8
TCONNECTIONS
 62
7
 10
36.5
 20
-86.5
 11
44.5
 21
-86.5
  0
LINE
  8
TCONNECTIONS
 62
7
 10
43
 20
-80.25
 11
43
 21
-82
  0
LINE
  8
TCONNECTIONS
 62
7
 10
43
 20
-84.75
 11
43
 21
-86.25
  0
LINE
  8
TCONNECTIONS
 62
7
 10
41.5
 20
-81.75
 11
43
 21
-84.75
  0
LINE
  8
TCONNECTIONS
 62
7
 10
38
 20
-80.25
 11
38
 21
-82
  0
LINE
  8
TCONNECTIONS
 62
7
 10
38
 20
-84.75
 11
38
 21
-86.25
  0
LINE
  8
TCONNECTIONS
 62
7
 10
38
 20
-84.75
 11
39.25
 21
-81.75
  0
LINE
  8
TCONNECTIONS
 62
7
 10
38
 20
-82
 11
39.5
 21
-82
  0
TEXT
  8
TCONNECTIONS
 62
7
 40
1.5
  1
3
  7
STANDARD
 72
1
 10
42.75
 20
-89.8569335938
 11
42.75
 21
-89.8569335938
  0
TEXT
  8
TCONNECTIONS
 62
7
 40
1.5
  1
4
  7
STANDARD
 72
1
 10
42.75
 20
-92.8569335938
 11
42.75
 21
-92.8569335938
  0
LINE
  8
TCONNECTIONS
 62
7
 10
40.5
 20
-80.5
 11
40.5
 21
-93.5
  0
LINE
  8
TCONNECTIONS
 62
7
 10
60.5
 20
-86.5
 11
68.5
 21
-86.5
  0
LINE
  8
TCONNECTIONS
 62
7
 10
67
 20
-80.25
 11
67
 21
-82
  0
LINE
  8
TCONNECTIONS
 62
7
 10
67
 20
-84.75
 11
67
 21
-86.25
  0
LINE
  8
TCONNECTIONS
 62
7
 10
65.5
 20
-81.75
 11
67
 21
-84.75
  0
LINE
  8
TCONNECTIONS
 62
7
 10
62
 20
-80.25
 11
62
 21
-82
  0
LINE
  8
TCONNECTIONS
 62
7
 10
62
 20
-84.75
 11
62
 21
-86.25
  0
LINE
  8
TCONNECTIONS
 62
7
 10
62
 20
-84.75
 11
63.25
 21
-81.75
  0
LINE
  8
TCONNECTIONS
 62
7
 10
62
 20
-82
 11
63.5
 21
-82
  0
TEXT
  8
TCONNECTIONS
 62
7
 40
1.5
  1
6
  7
STANDARD
 72
1
 10
66.75
 20
-89.8569335938
 11
66.75
 21
-89.8569335938
  0
LINE
  8
TCONNECTIONS
 62
7
 10
64.5
 20
-80.5
 11
64.5
 21
-90.5
  0
LINE
  8
TCONNECTIONS
 62
7
 10
80
 20
-86.5
 11
88
 21
-86.5
  0
LINE
  8
TCONNECTIONS
 62
7
 10
86.5
 20
-80.25
 11
86.5
 21
-82
  0
LINE
  8
TCONNECTIONS
 62
7
 10
86.5
 20
-84.75
 11
86.5
 21
-86.25
  0
LINE
  8
TCONNECTIONS
 62
7
 10
85
 20
-81.75
 11
86.5
 21
-84.75
  0
LINE
  8
TCONNECTIONS
 62
7
 10
81.5
 20
-80.25
 11
81.5
 21
-82
  0
LINE
  8
TCONNECTIONS
 62
7
 10
81.5
 20
-84.75
 11
81.5
 21
-86.25
  0
LINE
  8
TCONNECTIONS
 62
7
 10
81.5
 20
-84.75
 11
82.75
 21
-81.75
  0
LINE
  8
TCONNECTIONS
 62
7
 10
81.5
 20
-82
 11
83
 21
-82
  0
TEXT
  8
TCONNECTIONS
 62
7
 40
1.5
  1
6
  7
STANDARD
 72
1
 10
86.25
 20
-89.8569335938
 11
86.25
 21
-89.8569335938
  0
TEXT
  8
TCONNECTIONS
 62
7
 40
1.5
  1
7
  7
STANDARD
 72
1
 10
86.25
 20
-92.8569335938
 11
86.25
 21
-92.8569335938
  0
LINE
  8
TCONNECTIONS
 62
7
 10
84
 20
-80.5
 11
84
 21
-93.5
  0
ENDBLK
  8
0
  0
ENDSEC
  0
SECTION
  2
ENTITIES
  0
INSERT
  8
1
  2
B2
 10
41.5002441406
 20
17
  0
INSERT
  8
1
  2
B3
 10
40.0002441406
 20
54.5
  0
INSERT
  8
1
  2
B4
 10
89.5
 20
54.5
  0
INSERT
  8
1
  2
B5
 10
89.5
 20
17
  0
INSERT
  8
1
  2
B6
 10
85.0004882813
 20
26
  0
INSERT
  8
1
  2
B7
 10
49.0004882813
 20
30.5
  0
INSERT
  8
1
  2
B8
 10
52
 20
54.5
  0
INSERT
  8
1
  2
B9
 10
52
 20
17
  0
INSERT
  8
1
  2
B10
 10
64.0004882813
 20
26
  0
INSERT
  8
1
  2
B11
 10
65.5
 20
17
  0
INSERT
  8
1
  2
B12
 10
88.5002441406
 20
41
  0
INSERT
  8
1
  2
B13
 10
107.500488281
 20
23
  0
INSERT
  8
1
  2
B14
 10
102.000244141
 20
41
  0
INSERT
  8
1
  2
B15
 10
114.000244141
 20
47
  0
INSERT
  8
1
  2
B16
 10
114.000244141
 20
38
  0
INSERT
  8
1
  2
B17
 10
109
 20
33.5
  0
INSERT
  8
1
  2
B18
 10
103
 20
54.5
  0
INSERT
  8
1
  2
B19
 10
130.000244141
 20
23
  0
INSERT
  8
1
  2
B20
 10
130.500244141
 20
41
  0
INSERT
  8
1
  2
B21
 10
115
 20
54.5
  0
INSERT
  8
1
  2
B22
 10
109
 20
17
  0
INSERT
  8
1
  2
B23
 10
89.5
 20
81.5
  0
INSERT
  8
1
  2
B24
 10
100.5
 20
122
  0
INSERT
  8
1
  2
B25
 10
99.5002441406
 20
73.5
  0
INSERT
  8
1
  2
B26
 10
102.500244141
 20
75
  0
INSERT
  8
1
  2
B27
 10
105.3125
 20
131.0625
  0
INSERT
  8
1
  2
B28
 10
116.939453125
 20
99.5
  0
INSERT
  8
1
  2
B29
 10
131.5
 20
107
  0
INSERT
  8
1
  2
B30
 10
119.507080078
 20
132.25
  0
INSERT
  8
1
  2
B31
 10
112
 20
92
  0
INSERT
  8
1
  2
B32
 10
116.5
 20
92
  0
INSERT
  8
1
  2
B33
 10
112
 20
108.5
  0
INSERT
  8
1
  2
B34
 10
100
 20
113
  0
INSERT
  8
1
  2
B35
 10
127
 20
92.439453125
  0
INSERT
  8
1
  2
B36
 10
140.973876953
 20
101.000244141
  0
INSERT
  8
1
  2
B37
 10
110.973876953
 20
98.0002441406
  0
INSERT
  8
1
  2
B38
 10
2.5
 20
84.5
  0
INSERT
  8
1
  2
B39
 10
13.5
 20
122
  0
INSERT
  8
1
  2
B40
 10
12.5002441406
 20
76.5
  0
INSERT
  8
1
  2
B41
 10
15.5002441406
 20
78
  0
INSERT
  8
1
  2
B42
 10
17.75
 20
131.5
  0
INSERT
  8
1
  2
B43
 10
23.9738769531
 20
101.000244141
  0
INSERT
  8
1
  2
B44
 10
29.939453125
 20
102.5
  0
INSERT
  8
1
  2
B45
 10
44.5
 20
107
  0
INSERT
  8
1
  2
B46
 10
32.5070800781
 20
132.25
  0
INSERT
  8
1
  2
B47
 10
25
 20
113
  0
INSERT
  8
1
  2
B48
 10
29.5
 20
113
  0
INSERT
  8
1
  2
B49
 10
25
 20
95
  0
INSERT
  8
1
  2
B50
 10
29.5
 20
95
  0
INSERT
  8
1
  2
B1
 10
-108.25
 20
0
  0
ENDSEC
  0
EOF
