  0
SECTION
  2
HEADER
  9
$LIMMIN
 10
0
 20
0
  9
$LIMMAX
 10
297
 20
210
  9
$EXTMIN
 10
47.5
 20
11.9375
  9
$EXTMAX
 10
195.75
 20
86.75
  0
ENDSEC
  0
SECTION
  2
TABLES
  0
TABLE
  2
LTYPE
 70
9
  0
LTYPE
  2
AUSGEZOGEN
 70
64
  3
Ausgezogene Linie
 72
65
 73
0
 40
0.0
  0
LTYPE
  2
GESTRICHELT
 70
0
  3
__ __ __ __ __ __ __ __ __ __ __ __ __ __ __
 72
65
 73
2
 40
3
 49
2
 49
-1
  0
LTYPE
  2
STRICHPUNKTIERT
 70
0
  3
__ . __ . __ . __ . __ . __ . __ . __ . __ .
 72
65
 73
4
 40
8
 49
4
 49
-2
 49
0
 49
-2
  0
ENDTAB
  0
TABLE
  2
LAYER
 70
10
  0
LAYER
  2
1
 70
0
 62
7
  6
AUSGEZOGEN
  0
LAYER
  2
LINES
 70
0
 62
7
  6
AUSGEZOGEN
  0
LAYER
  2
CONNECTIONS
 70
0
 62
-7
  6
AUSGEZOGEN
  0
LAYER
  2
TEXT
 70
0
 62
7
  6
AUSGEZOGEN
  0
LAYER
  2
TCONNECTIONS
 70
0
 62
7
  6
AUSGEZOGEN
  0
ENDTAB
  0
ENDSEC
  0
SECTION
  2
BLOCKS
  0
BLOCK
  8
0
  2
B1
 70
0
 10
0
 20
0
  0
LINE
  8
LINES
 62
7
 10
52.25
 20
57
 11
52.25
 21
57
  0
LINE
  8
LINES
 62
7
 10
52.25
 20
57
 11
52.25
 21
51
  0
LINE
  8
LINES
 62
7
 10
52.25
 20
51
 11
67.25
 21
51
  0
LINE
  8
LINES
 62
7
 10
64.25
 20
57
 11
64.25
 21
24
  0
LINE
  8
LINES
 62
7
 10
64.25
 20
24
 11
82.25
 21
24
  0
LINE
  8
LINES
 62
7
 10
82.25
 20
24
 11
82.25
 21
24
  0
LINE
  8
LINES
 62
7
 10
92.75
 20
57
 11
92.75
 21
51
  0
LINE
  8
LINES
 62
7
 10
92.75
 20
51
 11
92.75
 21
51
  0
LINE
  8
LINES
 62
7
 10
104.75
 20
57
 11
104.75
 21
57
  0
LINE
  8
LINES
 62
7
 10
104.75
 20
57
 11
104.75
 21
24
  0
LINE
  8
LINES
 62
7
 10
82.25
 20
24
 11
104.75
 21
24
  0
LINE
  8
LINES
 62
7
 10
76.25
 20
45
 11
76.25
 21
45
  0
LINE
  8
LINES
 62
7
 10
76.25
 20
45
 11
76.25
 21
51
  0
LINE
  8
LINES
 62
7
 10
67.25
 20
51
 11
76.25
 21
51
  0
LINE
  8
LINES
 62
7
 10
82.25
 20
45
 11
82.25
 21
45
  0
LINE
  8
LINES
 62
7
 10
82.25
 20
45
 11
82.25
 21
51
  0
LINE
  8
LINES
 62
7
 10
82.25
 20
51
 11
92.75
 21
51
  0
LINE
  8
LINES
 62
7
 10
79.25
 20
31.5
 11
79.25
 21
28.5
  0
LINE
  8
LINES
 62
7
 10
79.25
 20
28.5
 11
79.25
 21
28.5
  0
LINE
  8
LINES
 62
7
 10
67.25
 20
37.5
 11
67.25
 21
37.5
  0
LINE
  8
LINES
 62
7
 10
67.25
 20
37.5
 11
67.25
 21
28.5
  0
LINE
  8
LINES
 62
7
 10
67.25
 20
28.5
 11
79.25
 21
28.5
  0
LINE
  8
LINES
 62
7
 10
67.25
 20
43.5
 11
67.25
 21
46.5
  0
LINE
  8
LINES
 62
7
 10
67.25
 20
46.5
 11
67.25
 21
46.5
  0
LINE
  8
LINES
 62
7
 10
67.25
 20
46.5
 11
67.25
 21
51
  0
LINE
  8
LINES
 62
7
 10
92.75
 20
37.5
 11
92.75
 21
37.5
  0
LINE
  8
LINES
 62
7
 10
92.75
 20
37.5
 11
92.75
 21
28.5
  0
LINE
  8
LINES
 62
7
 10
79.25
 20
28.5
 11
92.75
 21
28.5
  0
LINE
  8
LINES
 62
7
 10
92.75
 20
43.5
 11
92.75
 21
45
  0
LINE
  8
LINES
 62
7
 10
92.75
 20
45
 11
92.75
 21
45
  0
LINE
  8
LINES
 62
7
 10
92.75
 20
45
 11
92.75
 21
51
  0
LINE
  8
LINES
 62
7
 10
79.25
 20
12
 11
79.25
 21
9
  0
LINE
  8
LINES
 62
7
 10
79.25
 20
9
 11
79.25
 21
9
  0
LINE
  8
LINES
 62
7
 10
79.25
 20
9
 11
79.25
 21
6
  0
LINE
  8
LINES
 62
7
 10
82.25
 20
12
 11
82.25
 21
12
  0
LINE
  8
LINES
 62
7
 10
82.25
 20
12
 11
82.25
 21
12
  0
LINE
  8
LINES
 62
7
 10
82.25
 20
12
 11
82.25
 21
10.5
  0
LINE
  8
LINES
 62
7
 10
79.25
 20
28.5
 11
79.25
 21
27
  0
LINE
  8
LINES
 62
7
 10
79.25
 20
27
 11
79.25
 21
27
  0
LINE
  8
LINES
 62
7
 10
79.25
 20
27
 11
79.25
 21
21
  0
LINE
  8
LINES
 62
7
 10
82.25
 20
24
 11
82.25
 21
21
  0
LINE
  8
LINES
 62
7
 10
82.25
 20
21
 11
82.25
 21
21
  0
LINE
  8
LINES
 62
7
 10
134.75
 20
57
 11
134.75
 21
57
  0
LINE
  8
LINES
 62
7
 10
134.75
 20
57
 11
134.75
 21
51
  0
LINE
  8
LINES
 62
7
 10
134.75
 20
51
 11
149.75
 21
51
  0
LINE
  8
LINES
 62
7
 10
146.75
 20
57
 11
146.75
 21
24
  0
LINE
  8
LINES
 62
7
 10
146.75
 20
24
 11
164.75
 21
24
  0
LINE
  8
LINES
 62
7
 10
164.75
 20
24
 11
164.75
 21
24
  0
LINE
  8
LINES
 62
7
 10
175.25
 20
57
 11
175.25
 21
51
  0
LINE
  8
LINES
 62
7
 10
175.25
 20
51
 11
175.25
 21
51
  0
LINE
  8
LINES
 62
7
 10
187.25
 20
57
 11
187.25
 21
57
  0
LINE
  8
LINES
 62
7
 10
187.25
 20
57
 11
187.25
 21
24
  0
LINE
  8
LINES
 62
7
 10
164.75
 20
24
 11
187.25
 21
24
  0
LINE
  8
LINES
 62
7
 10
149.75
 20
37.5
 11
149.75
 21
37.5
  0
LINE
  8
LINES
 62
7
 10
149.75
 20
37.5
 11
149.75
 21
28.5
  0
LINE
  8
LINES
 62
7
 10
149.75
 20
28.5
 11
161.75
 21
28.5
  0
LINE
  8
LINES
 62
7
 10
149.75
 20
43.5
 11
149.75
 21
46.5
  0
LINE
  8
LINES
 62
7
 10
149.75
 20
46.5
 11
149.75
 21
46.5
  0
LINE
  8
LINES
 62
7
 10
149.75
 20
46.5
 11
149.75
 21
51
  0
LINE
  8
LINES
 62
7
 10
175.25
 20
37.5
 11
175.25
 21
37.5
  0
LINE
  8
LINES
 62
7
 10
175.25
 20
37.5
 11
175.25
 21
28.5
  0
LINE
  8
LINES
 62
7
 10
161.75
 20
28.5
 11
175.25
 21
28.5
  0
LINE
  8
LINES
 62
7
 10
175.25
 20
43.5
 11
175.25
 21
45
  0
LINE
  8
LINES
 62
7
 10
175.25
 20
45
 11
175.25
 21
45
  0
LINE
  8
LINES
 62
7
 10
175.25
 20
45
 11
175.25
 21
51
  0
LINE
  8
LINES
 62
7
 10
161.75
 20
12
 11
161.75
 21
9
  0
LINE
  8
LINES
 62
7
 10
161.75
 20
9
 11
161.75
 21
9
  0
LINE
  8
LINES
 62
7
 10
161.75
 20
9
 11
161.75
 21
6
  0
LINE
  8
LINES
 62
7
 10
164.75
 20
12
 11
164.75
 21
12
  0
LINE
  8
LINES
 62
7
 10
164.75
 20
12
 11
164.75
 21
12
  0
LINE
  8
LINES
 62
7
 10
164.75
 20
12
 11
164.75
 21
10.5
  0
LINE
  8
LINES
 62
7
 10
167.75
 20
51
 11
175.25
 21
51
  0
LINE
  8
LINES
 62
7
 10
167.75
 20
51
 11
167.75
 21
46.5
  0
LINE
  8
LINES
 62
7
 10
167.75
 20
46.5
 11
167.75
 21
46.5
  0
LINE
  8
LINES
 62
7
 10
161.75
 20
28.5
 11
161.75
 21
31.5
  0
LINE
  8
LINES
 62
7
 10
161.75
 20
31.5
 11
161.75
 21
31.5
  0
LINE
  8
LINES
 62
7
 10
161.75
 20
28.5
 11
161.75
 21
27
  0
LINE
  8
LINES
 62
7
 10
161.75
 20
27
 11
161.75
 21
27
  0
LINE
  8
LINES
 62
7
 10
161.75
 20
27
 11
161.75
 21
21
  0
LINE
  8
LINES
 62
7
 10
149.75
 20
51
 11
157.25
 21
51
  0
LINE
  8
LINES
 62
7
 10
157.25
 20
51
 11
157.25
 21
46.5
  0
LINE
  8
LINES
 62
7
 10
157.25
 20
46.5
 11
157.25
 21
46.5
  0
LINE
  8
LINES
 62
7
 10
164.75
 20
24
 11
164.75
 21
21
  0
LINE
  8
LINES
 62
7
 10
164.75
 20
21
 11
164.75
 21
21
  0
LINE
  8
LINES
 62
7
 10
157.25
 20
34.5
 11
157.25
 21
34.5
  0
LINE
  8
LINES
 62
7
 10
157.25
 20
34.5
 11
157.25
 21
31.5
  0
LINE
  8
LINES
 62
7
 10
157.25
 20
31.5
 11
161.75
 21
31.5
  0
LINE
  8
LINES
 62
7
 10
161.75
 20
31.5
 11
161.75
 21
31.5
  0
LINE
  8
LINES
 62
7
 10
161.75
 20
31.5
 11
167.75
 21
31.5
  0
LINE
  8
LINES
 62
7
 10
167.75
 20
31.5
 11
167.75
 21
34.5
  0
ENDBLK
  8
0
  0
BLOCK
  8
0
  2
B2
 70
0
 10
0
 20
0
  0
LINE
  8
1
 62
7
 10
1
 20
2
 11
1
 21
0
  0
LINE
  8
1
 62
7
 10
13
 20
2
 11
13
 21
0
  0
LINE
  8
1
 62
7
 10
14
 20
8
 11
14
 21
5.75
  0
LINE
  8
1
 62
7
 10
14
 20
4.25
 11
14
 21
2
  0
LINE
  8
1
 62
7
 10
0
 20
8
 11
0
 21
2
  0
LINE
  8
1
 62
7
 10
0
 20
8
 11
14
 21
8
  0
LINE
  8
1
 62
7
 10
0
 20
2
 11
14
 21
2
  0
LINE
  8
1
 62
7
 10
18.8498535156
 20
4.25
 11
4.09985351563
 21
4.25
  0
LINE
  8
1
 62
7
 10
18.8498535156
 20
5.75
 11
18.8498535156
 21
4.25
  0
LINE
  8
1
 62
7
 10
4.09985351563
 20
5.75
 11
18.8498535156
 21
5.75
  0
LINE
  8
1
 62
7
 10
1.09985351563
 20
8
 11
1.09985351563
 21
2
  0
LINE
  8
1
 62
7
 10
4.09985351563
 20
8
 11
4.09985351563
 21
2
  0
ENDBLK
  8
0
  0
BLOCK
  8
0
  2
B3
 70
0
 10
0
 20
0
  0
LINE
  8
1
 62
7
 10
1
 20
2
 11
1
 21
0
  0
LINE
  8
1
 62
7
 10
13
 20
2
 11
13
 21
0
  0
LINE
  8
1
 62
7
 10
14
 20
8
 11
14
 21
5.75
  0
LINE
  8
1
 62
7
 10
14
 20
4.25
 11
14
 21
2
  0
LINE
  8
1
 62
7
 10
0
 20
8
 11
0
 21
2
  0
LINE
  8
1
 62
7
 10
0
 20
8
 11
14
 21
8
  0
LINE
  8
1
 62
7
 10
0
 20
2
 11
14
 21
2
  0
LINE
  8
1
 62
7
 10
18.8498535156
 20
4.25
 11
4.09985351563
 21
4.25
  0
LINE
  8
1
 62
7
 10
18.8498535156
 20
5.75
 11
18.8498535156
 21
4.25
  0
LINE
  8
1
 62
7
 10
4.09985351563
 20
5.75
 11
18.8498535156
 21
5.75
  0
LINE
  8
1
 62
7
 10
1.09985351563
 20
8
 11
1.09985351563
 21
2
  0
LINE
  8
1
 62
7
 10
4.09985351563
 20
8
 11
4.09985351563
 21
2
  0
ENDBLK
  8
0
  0
BLOCK
  8
0
  2
B4
 70
0
 10
0
 20
0
  0
LINE
  8
1
 62
7
 10
6.77587890625
 20
3
 11
6.77587890625
 21
0
  0
LINE
  8
1
 62
7
 10
0.77587890625
 20
12
 11
12.7758789063
 21
12
  0
LINE
  8
1
 62
7
 10
0.77587890625
 20
1.5
 11
12.7758789063
 21
1.5
  0
ARC
  8
1
 62
7
 10
7.15087890625
 20
7.5
 40
2.40112304688
 50
308
 51
411
  0
LINE
  8
1
 62
7
 10
3.77587890625
 20
3
 11
9.77587890625
 21
3
  0
SOLID
  8
1
 62
7
 10
9.77587890625
 20
12
 11
10.1508789063
 21
10.5
 12
9.77587890625
 22
12
 13
9.40087890625
 23
10.5
  0
LINE
  8
1
 62
7
 10
0.77587890625
 20
12
 11
0.77587890625
 21
1.5
  0
LINE
  8
1
 62
7
 10
3.77587890625
 20
12
 11
3.77587890625
 21
3
  0
ARC
  8
1
 62
7
 10
6.40087890625
 20
7.5
 40
2.40112304688
 50
128
 51
231
  0
ARC
  8
1
 62
7
 10
1.15087890625
 20
7.5
 40
2.40112304688
 50
308
 51
411
  0
LINE
  8
1
 62
7
 10
3.77587890625
 20
13.5
 11
3.77587890625
 21
12
  0
LINE
  8
1
 62
7
 10
3.77587890625
 20
12
 11
4.15087890625
 21
10.5
  0
LINE
  8
1
 62
7
 10
3.77587890625
 20
12
 11
3.40087890625
 21
10.5
  0
LINE
  8
1
 62
7
 10
3.40087890625
 20
10.5
 11
4.15087890625
 21
10.5
  0
SOLID
  8
1
 62
7
 10
3.77587890625
 20
12
 11
4.15087890625
 21
10.5
 12
3.77587890625
 22
12
 13
3.40087890625
 23
10.5
  0
LINE
  8
1
 62
7
 10
12.7758789063
 20
12
 11
12.7758789063
 21
1.5
  0
LINE
  8
1
 62
7
 10
9.77587890625
 20
12
 11
9.77587890625
 21
3
  0
ARC
  8
1
 62
7
 10
12.4008789063
 20
7.5
 40
2.40112304688
 50
128
 51
231
  0
LINE
  8
1
 62
7
 10
9.77587890625
 20
13.5
 11
9.77587890625
 21
12
  0
LINE
  8
1
 62
7
 10
9.77587890625
 20
12
 11
10.1508789063
 21
10.5
  0
POLYLINE
  8
1
 62
7
 70
1
 66
1
 40
0.1875
 41
0.1875
  0
VERTEX
  8
1
 10
6.68212890625
 20
3
 42
1
  0
VERTEX
  8
1
 10
6.86962890625
 20
3
 42
1
  0
SEQEND
  8
1
  0
ENDBLK
  8
0
  0
BLOCK
  8
0
  2
B5
 70
0
 10
0
 20
0
  0
CIRCLE
  8
1
 62
7
 10
1.060546875
 20
2.8388671875
 40
0.75
  0
LINE
  8
1
 62
7
 10
0
 20
2.8388671875
 11
1.060546875
 21
3.89965820313
  0
LINE
  8
1
 62
7
 10
2.12109375
 20
2.8388671875
 11
1.060546875
 21
3.89965820313
  0
LINE
  8
1
 62
7
 10
1.060546875
 20
0
 11
1.060546875
 21
2.0849609375
  0
LINE
  8
1
 62
7
 10
1.060546875
 20
3.89965820313
 11
1.060546875
 21
6
  0
ENDBLK
  8
0
  0
BLOCK
  8
0
  2
B6
 70
0
 10
0
 20
0
  0
CIRCLE
  8
1
 62
7
 10
1.060546875
 20
2.8388671875
 40
0.75
  0
LINE
  8
1
 62
7
 10
0
 20
2.8388671875
 11
1.060546875
 21
3.89965820313
  0
LINE
  8
1
 62
7
 10
2.12109375
 20
2.8388671875
 11
1.060546875
 21
3.89965820313
  0
LINE
  8
1
 62
7
 10
1.060546875
 20
0
 11
1.060546875
 21
2.0849609375
  0
LINE
  8
1
 62
7
 10
1.060546875
 20
3.89965820313
 11
1.060546875
 21
6
  0
ENDBLK
  8
0
  0
BLOCK
  8
0
  2
B7
 70
0
 10
0
 20
0
  0
LINE
  8
1
 62
7
 10
2
 20
3.75
 11
2.5
 21
2.75
  0
LINE
  8
1
 62
7
 10
2.5
 20
2.75
 11
3
 21
3.75
  0
LINE
  8
1
 62
7
 10
4.5
 20
3.75
 11
3
 21
3.75
  0
CIRCLE
  8
1
 62
7
 10
1.5
 20
5
 40
0.5
  0
LINE
  8
1
 62
7
 10
2
 20
3.75
 11
0.964111328125
 21
3.75
  0
LINE
  8
1
 62
7
 10
4.5
 20
2.25
 11
0.3212890625
 21
2.25
  0
LINE
  8
1
 62
7
 10
0
 20
1.5
 11
1.30297851563
 21
4.54052734375
  0
LINE
  8
1
 62
7
 10
4.5
 20
1.5
 11
10.5
 21
1.5
  0
LINE
  8
1
 62
7
 10
10.5
 20
7.5
 11
4.5
 21
7.5
  0
LINE
  8
1
 62
7
 10
4.5
 20
7.5
 11
4.5
 21
1.5
  0
SOLID
  8
1
 62
7
 10
6
 20
7.5
 11
5.5
 21
5.5
 12
6
 22
7.5
 13
6.5
 23
5.5
  0
SOLID
  8
1
 62
7
 10
9
 20
1.5
 11
9.5
 21
3.5
 12
9
 22
1.5
 13
8.5
 23
3.5
  0
LINE
  8
1
 62
7
 10
10.5
 20
1.5
 11
10.5
 21
7.5
  0
LINE
  8
1
 62
7
 10
6
 20
7.5
 11
6
 21
1.5
  0
LINE
  8
1
 62
7
 10
9
 20
7.5
 11
9
 21
1.5
  0
LINE
  8
1
 62
7
 10
10.5
 20
1.5
 11
16.5
 21
1.5
  0
LINE
  8
1
 62
7
 10
16.5
 20
1.5
 11
16.5
 21
7.5
  0
LINE
  8
1
 62
7
 10
16.5
 20
7.5
 11
10.5
 21
7.5
  0
LINE
  8
1
 62
7
 10
10.5
 20
7.5
 11
10.5
 21
1.5
  0
LINE
  8
1
 62
7
 10
11.5
 20
6
 11
12.5
 21
6
  0
LINE
  8
1
 62
7
 10
14.5
 20
6
 11
15.5
 21
6
  0
LINE
  8
1
 62
7
 10
11.5
 20
3
 11
12.5
 21
3
  0
LINE
  8
1
 62
7
 10
14.5
 20
3
 11
15.5
 21
3
  0
LINE
  8
1
 62
7
 10
12
 20
7.5
 11
12
 21
6
  0
LINE
  8
1
 62
7
 10
15
 20
7.5
 11
15
 21
6
  0
LINE
  8
1
 62
7
 10
12
 20
3
 11
12
 21
1.5
  0
LINE
  8
1
 62
7
 10
15
 20
3
 11
15
 21
1.5
  0
LINE
  8
1
 62
7
 10
21
 20
1.5
 11
18
 21
7.5
  0
SOLID
  8
1
 62
7
 10
21
 20
1.5
 11
20.5495605469
 21
3.51025390625
 12
21
 22
1.5
 13
19.6596679688
 23
3.07006835938
  0
LINE
  8
1
 62
7
 10
18
 20
1.5
 11
21
 21
7.5
  0
SOLID
  8
1
 62
7
 10
21
 20
7.5
 11
20.5495605469
 21
5.490234375
 12
21
 22
7.5
 13
19.6596679688
 23
5.93041992188
  0
LINE
  8
1
 62
7
 10
16.5
 20
1.5
 11
22.5
 21
1.5
  0
LINE
  8
1
 62
7
 10
22.5
 20
1.5
 11
22.5
 21
7.5
  0
LINE
  8
1
 62
7
 10
22.5
 20
7.5
 11
16.5
 21
7.5
  0
LINE
  8
1
 62
7
 10
16.5
 20
7.5
 11
16.5
 21
1.5
  0
LINE
  8
1
 62
7
 10
12
 20
9
 11
12
 21
7.5
  0
LINE
  8
1
 62
7
 10
15
 20
9
 11
15
 21
7.5
  0
LINE
  8
1
 62
7
 10
12
 20
0
 11
12
 21
1.5
  0
LINE
  8
1
 62
7
 10
15
 20
0
 11
15
 21
1.5
  0
ENDBLK
  8
0
  0
BLOCK
  8
0
  2
B8
 70
0
 10
0
 20
0
  0
LINE
  8
1
 62
7
 10
0.499755859375
 20
0.5
 11
3.49975585938
 21
0.5
  0
SOLID
  8
1
 62
7
 10
1.99975585938
 20
2.75
 11
0.499755859375
 21
0.5
 12
1.99975585938
 22
2.75
 13
3.49975585938
 23
0.5
  0
LINE
  8
1
 62
7
 10
1.99975585938
 20
2.75
 11
0.499755859375
 21
0.5
  0
LINE
  8
1
 62
7
 10
1.99975585938
 20
2.75
 11
3.49975585938
 21
0.5
  0
LINE
  8
1
 62
7
 10
1.99975585938
 20
3.5
 11
1.99975585938
 21
2.75
  0
ENDBLK
  8
0
  0
BLOCK
  8
0
  2
B9
 70
0
 10
0
 20
0
  0
LINE
  8
1
 62
7
 10
1.99975585938
 20
3.5
 11
1.99975585938
 21
0.5
  0
LINE
  8
1
 62
7
 10
0.499755859375
 20
0.5
 11
3.49975585938
 21
0.5
  0
LINE
  8
1
 62
7
 10
0.499755859375
 20
2
 11
0.499755859375
 21
0.5
  0
LINE
  8
1
 62
7
 10
3.49975585938
 20
2
 11
3.49975585938
 21
0.5
  0
ENDBLK
  8
0
  0
BLOCK
  8
0
  2
B10
 70
0
 10
0
 20
0
  0
POLYLINE
  8
TCONNECTIONS
 62
7
 70
1
 66
1
 40
0.375
 41
0.375
  0
VERTEX
  8
1
 10
1.3125
 20
1.5
 42
1
  0
VERTEX
  8
1
 10
1.6875
 20
1.5
 42
1
  0
SEQEND
  8
1
  0
ENDBLK
  8
0
  0
BLOCK
  8
0
  2
B11
 70
0
 10
0
 20
0
  0
POLYLINE
  8
TCONNECTIONS
 62
7
 70
1
 66
1
 40
0.375
 41
0.375
  0
VERTEX
  8
1
 10
1.3125
 20
1.5
 42
1
  0
VERTEX
  8
1
 10
1.6875
 20
1.5
 42
1
  0
SEQEND
  8
1
  0
ENDBLK
  8
0
  0
BLOCK
  8
0
  2
B12
 70
0
 10
0
 20
0
  0
POLYLINE
  8
TCONNECTIONS
 62
7
 70
1
 66
1
 40
0.375
 41
0.375
  0
VERTEX
  8
1
 10
1.3125
 20
1.5
 42
1
  0
VERTEX
  8
1
 10
1.6875
 20
1.5
 42
1
  0
SEQEND
  8
1
  0
ENDBLK
  8
0
  0
BLOCK
  8
0
  2
B13
 70
0
 10
0
 20
0
  0
POLYLINE
  8
TCONNECTIONS
 62
7
 70
1
 66
1
 40
0.375
 41
0.375
  0
VERTEX
  8
1
 10
1.3125
 20
1.5
 42
1
  0
VERTEX
  8
1
 10
1.6875
 20
1.5
 42
1
  0
SEQEND
  8
1
  0
ENDBLK
  8
0
  0
BLOCK
  8
0
  2
B14
 70
0
 10
0
 20
0
  0
TEXT
  8
TEXT
 62
7
 40
2
  1
√÷1
  7
STANDARD
 72
1
 10
3.125
 20
1.73193359375
 11
3.125
 21
1.73193359375
  0
ENDBLK
  8
0
  0
BLOCK
  8
0
  2
B15
 70
0
 10
0
 20
0
  0
TEXT
  8
TEXT
 62
7
 40
2
  1
√÷2
  7
STANDARD
 72
1
 10
3.125
 20
1.73193359375
 11
3.125
 21
1.73193359375
  0
ENDBLK
  8
0
  0
BLOCK
  8
0
  2
B16
 70
0
 10
0
 20
0
  0
TEXT
  8
TEXT
 62
7
 40
2
  1
ƒœ
  7
STANDARD
 72
1
 10
2.875
 20
1.73193359375
 11
2.875
 21
1.73193359375
  0
ENDBLK
  8
0
  0
BLOCK
  8
0
  2
B17
 70
0
 10
0
 20
0
  0
TEXT
  8
TEXT
 62
7
 40
2
  1
 Œ1
  7
STANDARD
 72
1
 10
3.375
 20
1.73193359375
 11
3.375
 21
1.73193359375
  0
ENDBLK
  8
0
  0
BLOCK
  8
0
  2
B18
 70
0
 10
0
 20
0
  0
TEXT
  8
TEXT
 62
7
 40
2
  1
 Œ2
  7
STANDARD
 72
1
 10
3.375
 20
1.73193359375
 11
3.375
 21
1.73193359375
  0
ENDBLK
  8
0
  0
BLOCK
  8
0
  2
B19
 70
0
 10
0
 20
0
  0
LINE
  8
1
 62
7
 10
1
 20
2
 11
1
 21
0
  0
LINE
  8
1
 62
7
 10
13
 20
2
 11
13
 21
0
  0
LINE
  8
1
 62
7
 10
14
 20
8
 11
14
 21
5.75
  0
LINE
  8
1
 62
7
 10
14
 20
4.25
 11
14
 21
2
  0
LINE
  8
1
 62
7
 10
0
 20
8
 11
0
 21
2
  0
LINE
  8
1
 62
7
 10
0
 20
8
 11
14
 21
8
  0
LINE
  8
1
 62
7
 10
0
 20
2
 11
14
 21
2
  0
LINE
  8
1
 62
7
 10
18.8498535156
 20
4.25
 11
4.09985351563
 21
4.25
  0
LINE
  8
1
 62
7
 10
18.8498535156
 20
5.75
 11
18.8498535156
 21
4.25
  0
LINE
  8
1
 62
7
 10
4.09985351563
 20
5.75
 11
18.8498535156
 21
5.75
  0
LINE
  8
1
 62
7
 10
1.09985351563
 20
8
 11
1.09985351563
 21
2
  0
LINE
  8
1
 62
7
 10
4.09985351563
 20
8
 11
4.09985351563
 21
2
  0
ENDBLK
  8
0
  0
BLOCK
  8
0
  2
B20
 70
0
 10
0
 20
0
  0
LINE
  8
1
 62
7
 10
1
 20
2
 11
1
 21
0
  0
LINE
  8
1
 62
7
 10
13
 20
2
 11
13
 21
0
  0
LINE
  8
1
 62
7
 10
14
 20
8
 11
14
 21
5.75
  0
LINE
  8
1
 62
7
 10
14
 20
4.25
 11
14
 21
2
  0
LINE
  8
1
 62
7
 10
0
 20
8
 11
0
 21
2
  0
LINE
  8
1
 62
7
 10
0
 20
8
 11
14
 21
8
  0
LINE
  8
1
 62
7
 10
0
 20
2
 11
14
 21
2
  0
LINE
  8
1
 62
7
 10
18.8498535156
 20
4.25
 11
4.09985351563
 21
4.25
  0
LINE
  8
1
 62
7
 10
18.8498535156
 20
5.75
 11
18.8498535156
 21
4.25
  0
LINE
  8
1
 62
7
 10
4.09985351563
 20
5.75
 11
18.8498535156
 21
5.75
  0
LINE
  8
1
 62
7
 10
1.09985351563
 20
8
 11
1.09985351563
 21
2
  0
LINE
  8
1
 62
7
 10
4.09985351563
 20
8
 11
4.09985351563
 21
2
  0
ENDBLK
  8
0
  0
BLOCK
  8
0
  2
B21
 70
0
 10
0
 20
0
  0
CIRCLE
  8
1
 62
7
 10
1.060546875
 20
2.8388671875
 40
0.75
  0
LINE
  8
1
 62
7
 10
0
 20
2.8388671875
 11
1.060546875
 21
3.89965820313
  0
LINE
  8
1
 62
7
 10
2.12109375
 20
2.8388671875
 11
1.060546875
 21
3.89965820313
  0
LINE
  8
1
 62
7
 10
1.060546875
 20
0
 11
1.060546875
 21
2.0849609375
  0
LINE
  8
1
 62
7
 10
1.060546875
 20
3.89965820313
 11
1.060546875
 21
6
  0
ENDBLK
  8
0
  0
BLOCK
  8
0
  2
B22
 70
0
 10
0
 20
0
  0
CIRCLE
  8
1
 62
7
 10
1.060546875
 20
2.8388671875
 40
0.75
  0
LINE
  8
1
 62
7
 10
0
 20
2.8388671875
 11
1.060546875
 21
3.89965820313
  0
LINE
  8
1
 62
7
 10
2.12109375
 20
2.8388671875
 11
1.060546875
 21
3.89965820313
  0
LINE
  8
1
 62
7
 10
1.060546875
 20
0
 11
1.060546875
 21
2.0849609375
  0
LINE
  8
1
 62
7
 10
1.060546875
 20
3.89965820313
 11
1.060546875
 21
6
  0
ENDBLK
  8
0
  0
BLOCK
  8
0
  2
B23
 70
0
 10
0
 20
0
  0
LINE
  8
1
 62
7
 10
2
 20
3.75
 11
2.5
 21
2.75
  0
LINE
  8
1
 62
7
 10
2.5
 20
2.75
 11
3
 21
3.75
  0
LINE
  8
1
 62
7
 10
4.5
 20
3.75
 11
3
 21
3.75
  0
CIRCLE
  8
1
 62
7
 10
1.5
 20
5
 40
0.5
  0
LINE
  8
1
 62
7
 10
2
 20
3.75
 11
0.964111328125
 21
3.75
  0
LINE
  8
1
 62
7
 10
4.5
 20
2.25
 11
0.3212890625
 21
2.25
  0
LINE
  8
1
 62
7
 10
0
 20
1.5
 11
1.30297851563
 21
4.54052734375
  0
LINE
  8
1
 62
7
 10
4.5
 20
1.5
 11
10.5
 21
1.5
  0
LINE
  8
1
 62
7
 10
10.5
 20
7.5
 11
4.5
 21
7.5
  0
LINE
  8
1
 62
7
 10
4.5
 20
7.5
 11
4.5
 21
1.5
  0
SOLID
  8
1
 62
7
 10
6
 20
7.5
 11
5.5
 21
5.5
 12
6
 22
7.5
 13
6.5
 23
5.5
  0
SOLID
  8
1
 62
7
 10
9
 20
1.5
 11
9.5
 21
3.5
 12
9
 22
1.5
 13
8.5
 23
3.5
  0
LINE
  8
1
 62
7
 10
10.5
 20
1.5
 11
10.5
 21
7.5
  0
LINE
  8
1
 62
7
 10
6
 20
7.5
 11
6
 21
1.5
  0
LINE
  8
1
 62
7
 10
9
 20
7.5
 11
9
 21
1.5
  0
LINE
  8
1
 62
7
 10
10.5
 20
1.5
 11
16.5
 21
1.5
  0
LINE
  8
1
 62
7
 10
16.5
 20
1.5
 11
16.5
 21
7.5
  0
LINE
  8
1
 62
7
 10
16.5
 20
7.5
 11
10.5
 21
7.5
  0
LINE
  8
1
 62
7
 10
10.5
 20
7.5
 11
10.5
 21
1.5
  0
LINE
  8
1
 62
7
 10
11.5
 20
6
 11
12.5
 21
6
  0
LINE
  8
1
 62
7
 10
14.5
 20
6
 11
15.5
 21
6
  0
LINE
  8
1
 62
7
 10
11.5
 20
3
 11
12.5
 21
3
  0
LINE
  8
1
 62
7
 10
14.5
 20
3
 11
15.5
 21
3
  0
LINE
  8
1
 62
7
 10
12
 20
7.5
 11
12
 21
6
  0
LINE
  8
1
 62
7
 10
15
 20
7.5
 11
15
 21
6
  0
LINE
  8
1
 62
7
 10
12
 20
3
 11
12
 21
1.5
  0
LINE
  8
1
 62
7
 10
15
 20
3
 11
15
 21
1.5
  0
LINE
  8
1
 62
7
 10
21
 20
1.5
 11
18
 21
7.5
  0
SOLID
  8
1
 62
7
 10
21
 20
1.5
 11
20.5495605469
 21
3.51025390625
 12
21
 22
1.5
 13
19.6596679688
 23
3.07006835938
  0
LINE
  8
1
 62
7
 10
18
 20
1.5
 11
21
 21
7.5
  0
SOLID
  8
1
 62
7
 10
21
 20
7.5
 11
20.5495605469
 21
5.490234375
 12
21
 22
7.5
 13
19.6596679688
 23
5.93041992188
  0
LINE
  8
1
 62
7
 10
16.5
 20
1.5
 11
22.5
 21
1.5
  0
LINE
  8
1
 62
7
 10
22.5
 20
1.5
 11
22.5
 21
7.5
  0
LINE
  8
1
 62
7
 10
22.5
 20
7.5
 11
16.5
 21
7.5
  0
LINE
  8
1
 62
7
 10
16.5
 20
7.5
 11
16.5
 21
1.5
  0
LINE
  8
1
 62
7
 10
12
 20
9
 11
12
 21
7.5
  0
LINE
  8
1
 62
7
 10
15
 20
9
 11
15
 21
7.5
  0
LINE
  8
1
 62
7
 10
12
 20
0
 11
12
 21
1.5
  0
LINE
  8
1
 62
7
 10
15
 20
0
 11
15
 21
1.5
  0
ENDBLK
  8
0
  0
BLOCK
  8
0
  2
B24
 70
0
 10
0
 20
0
  0
LINE
  8
1
 62
7
 10
0.499755859375
 20
0.5
 11
3.49975585938
 21
0.5
  0
SOLID
  8
1
 62
7
 10
1.99975585938
 20
2.75
 11
0.499755859375
 21
0.5
 12
1.99975585938
 22
2.75
 13
3.49975585938
 23
0.5
  0
LINE
  8
1
 62
7
 10
1.99975585938
 20
2.75
 11
0.499755859375
 21
0.5
  0
LINE
  8
1
 62
7
 10
1.99975585938
 20
2.75
 11
3.49975585938
 21
0.5
  0
LINE
  8
1
 62
7
 10
1.99975585938
 20
3.5
 11
1.99975585938
 21
2.75
  0
ENDBLK
  8
0
  0
BLOCK
  8
0
  2
B25
 70
0
 10
0
 20
0
  0
LINE
  8
1
 62
7
 10
1.99975585938
 20
3.5
 11
1.99975585938
 21
0.5
  0
LINE
  8
1
 62
7
 10
0.499755859375
 20
0.5
 11
3.49975585938
 21
0.5
  0
LINE
  8
1
 62
7
 10
0.499755859375
 20
2
 11
0.499755859375
 21
0.5
  0
LINE
  8
1
 62
7
 10
3.49975585938
 20
2
 11
3.49975585938
 21
0.5
  0
ENDBLK
  8
0
  0
BLOCK
  8
0
  2
B26
 70
0
 10
0
 20
0
  0
POLYLINE
  8
TCONNECTIONS
 62
7
 70
1
 66
1
 40
0.375
 41
0.375
  0
VERTEX
  8
1
 10
1.3125
 20
1.5
 42
1
  0
VERTEX
  8
1
 10
1.6875
 20
1.5
 42
1
  0
SEQEND
  8
1
  0
ENDBLK
  8
0
  0
BLOCK
  8
0
  2
B27
 70
0
 10
0
 20
0
  0
POLYLINE
  8
TCONNECTIONS
 62
7
 70
1
 66
1
 40
0.375
 41
0.375
  0
VERTEX
  8
1
 10
1.3125
 20
1.5
 42
1
  0
VERTEX
  8
1
 10
1.6875
 20
1.5
 42
1
  0
SEQEND
  8
1
  0
ENDBLK
  8
0
  0
BLOCK
  8
0
  2
B28
 70
0
 10
0
 20
0
  0
POLYLINE
  8
TCONNECTIONS
 62
7
 70
1
 66
1
 40
0.375
 41
0.375
  0
VERTEX
  8
1
 10
1.3125
 20
1.5
 42
1
  0
VERTEX
  8
1
 10
1.6875
 20
1.5
 42
1
  0
SEQEND
  8
1
  0
ENDBLK
  8
0
  0
BLOCK
  8
0
  2
B29
 70
0
 10
0
 20
0
  0
POLYLINE
  8
TCONNECTIONS
 62
7
 70
1
 66
1
 40
0.375
 41
0.375
  0
VERTEX
  8
1
 10
1.3125
 20
1.5
 42
1
  0
VERTEX
  8
1
 10
1.6875
 20
1.5
 42
1
  0
SEQEND
  8
1
  0
ENDBLK
  8
0
  0
BLOCK
  8
0
  2
B30
 70
0
 10
0
 20
0
  0
TEXT
  8
TEXT
 62
7
 40
2
  1
√÷1
  7
STANDARD
 72
1
 10
3.125
 20
1.73193359375
 11
3.125
 21
1.73193359375
  0
ENDBLK
  8
0
  0
BLOCK
  8
0
  2
B31
 70
0
 10
0
 20
0
  0
TEXT
  8
TEXT
 62
7
 40
2
  1
√÷2
  7
STANDARD
 72
1
 10
3.125
 20
1.73193359375
 11
3.125
 21
1.73193359375
  0
ENDBLK
  8
0
  0
BLOCK
  8
0
  2
B32
 70
0
 10
0
 20
0
  0
TEXT
  8
TEXT
 62
7
 40
2
  1
––1
  7
STANDARD
 72
1
 10
3.375
 20
1.73193359375
 11
3.375
 21
1.73193359375
  0
ENDBLK
  8
0
  0
BLOCK
  8
0
  2
B33
 70
0
 10
0
 20
0
  0
TEXT
  8
TEXT
 62
7
 40
2
  1
 Œ1
  7
STANDARD
 72
1
 10
3.375
 20
1.73193359375
 11
3.375
 21
1.73193359375
  0
ENDBLK
  8
0
  0
BLOCK
  8
0
  2
B34
 70
0
 10
0
 20
0
  0
TEXT
  8
TEXT
 62
7
 40
2
  1
 Œ2
  7
STANDARD
 72
1
 10
3.375
 20
1.73193359375
 11
3.375
 21
1.73193359375
  0
ENDBLK
  8
0
  0
BLOCK
  8
0
  2
B35
 70
0
 10
0
 20
0
  0
LINE
  8
1
 62
7
 10
3.75
 20
-0.000244140625
 11
3.75
 21
11.9997558594
  0
ARC
  8
1
 62
7
 10
1.125
 20
5.24975585938
 40
2.40112304688
 50
308
 51
411
  0
ARC
  8
1
 62
7
 10
6.375
 20
5.24975585938
 40
2.40112304688
 50
128
 51
231
  0
LINE
  8
1
 62
7
 10
6.75
 20
1.49975585938
 11
6.75
 21
10.4997558594
  0
LINE
  8
1
 62
7
 10
0.75
 20
1.49975585938
 11
0.75
 21
10.4997558594
  0
LINE
  8
1
 62
7
 10
1.62890625
 20
7.37084960938
 11
5.3408203125
 21
3.65869140625
  0
LINE
  8
1
 62
7
 10
0.75
 20
1.49975585938
 11
6.75
 21
1.49975585938
  0
LINE
  8
1
 62
7
 10
0.75
 20
10.4997558594
 11
6.75
 21
10.4997558594
  0
LINE
  8
1
 62
7
 10
3.30004882813
 20
8.99975585938
 11
3.75
 21
10.4997558594
  0
LINE
  8
1
 62
7
 10
3.75
 20
10.4997558594
 11
4.19995117188
 21
8.99975585938
  0
SOLID
  8
1
 62
7
 10
3.75
 20
10.4997558594
 11
3.30004882813
 21
8.99975585938
 12
3.75
 22
10.4997558594
 13
4.19995117188
 23
8.99975585938
  0
LINE
  8
1
 62
7
 10
3.30004882813
 20
8.99975585938
 11
4.19995117188
 21
8.99975585938
  0
LINE
  8
1
 62
7
 10
1.62890625
 20
7.37084960938
 11
2.1591796875
 21
6.41650390625
  0
LINE
  8
1
 62
7
 10
1.62890625
 20
7.37084960938
 11
2.58325195313
 21
6.84057617188
  0
SOLID
  8
1
 62
7
 10
1.62890625
 20
7.37084960938
 11
2.1591796875
 21
6.41650390625
 12
1.62890625
 22
7.37084960938
 13
2.58325195313
 23
6.84057617188
  0
LINE
  8
1
 62
7
 10
2.1591796875
 20
6.41650390625
 11
2.58325195313
 21
6.84057617188
  0
ENDBLK
  8
0
  0
BLOCK
  8
0
  2
B36
 70
0
 10
0
 20
0
  0
LINE
  8
1
 62
7
 10
3.75
 20
-0.000244140625
 11
3.75
 21
11.9997558594
  0
ARC
  8
1
 62
7
 10
1.125
 20
5.24975585938
 40
2.40112304688
 50
308
 51
411
  0
ARC
  8
1
 62
7
 10
6.375
 20
5.24975585938
 40
2.40112304688
 50
128
 51
231
  0
LINE
  8
1
 62
7
 10
6.75
 20
1.49975585938
 11
6.75
 21
10.4997558594
  0
LINE
  8
1
 62
7
 10
0.75
 20
1.49975585938
 11
0.75
 21
10.4997558594
  0
LINE
  8
1
 62
7
 10
1.62890625
 20
7.37084960938
 11
5.3408203125
 21
3.65869140625
  0
LINE
  8
1
 62
7
 10
0.75
 20
1.49975585938
 11
6.75
 21
1.49975585938
  0
LINE
  8
1
 62
7
 10
0.75
 20
10.4997558594
 11
6.75
 21
10.4997558594
  0
LINE
  8
1
 62
7
 10
3.30004882813
 20
8.99975585938
 11
3.75
 21
10.4997558594
  0
LINE
  8
1
 62
7
 10
3.75
 20
10.4997558594
 11
4.19995117188
 21
8.99975585938
  0
SOLID
  8
1
 62
7
 10
3.75
 20
10.4997558594
 11
3.30004882813
 21
8.99975585938
 12
3.75
 22
10.4997558594
 13
4.19995117188
 23
8.99975585938
  0
LINE
  8
1
 62
7
 10
3.30004882813
 20
8.99975585938
 11
4.19995117188
 21
8.99975585938
  0
LINE
  8
1
 62
7
 10
1.62890625
 20
7.37084960938
 11
2.1591796875
 21
6.41650390625
  0
LINE
  8
1
 62
7
 10
1.62890625
 20
7.37084960938
 11
2.58325195313
 21
6.84057617188
  0
SOLID
  8
1
 62
7
 10
1.62890625
 20
7.37084960938
 11
2.1591796875
 21
6.41650390625
 12
1.62890625
 22
7.37084960938
 13
2.58325195313
 23
6.84057617188
  0
LINE
  8
1
 62
7
 10
2.1591796875
 20
6.41650390625
 11
2.58325195313
 21
6.84057617188
  0
ENDBLK
  8
0
  0
BLOCK
  8
0
  2
B37
 70
0
 10
0
 20
0
  0
POLYLINE
  8
TCONNECTIONS
 62
7
 70
1
 66
1
 40
0.375
 41
0.375
  0
VERTEX
  8
1
 10
1.3125
 20
1.5
 42
1
  0
VERTEX
  8
1
 10
1.6875
 20
1.5
 42
1
  0
SEQEND
  8
1
  0
ENDBLK
  8
0
  0
BLOCK
  8
0
  2
B38
 70
0
 10
0
 20
0
  0
TEXT
  8
TEXT
 62
7
 40
2
  1
––2
  7
STANDARD
 72
1
 10
3.375
 20
1.73193359375
 11
3.375
 21
1.73193359375
  0
ENDBLK
  8
0
  0
ENDSEC
  0
SECTION
  2
ENTITIES
  0
INSERT
  8
1
  2
B2
 10
3.75
 20
57
  0
INSERT
  8
1
  2
B3
 10
44.25
 20
57
  0
INSERT
  8
1
  2
B4
 10
24.9741210938
 20
31.5
  0
INSERT
  8
1
  2
B5
 10
18.689453125
 20
37.5
  0
INSERT
  8
1
  2
B6
 10
44.189453125
 20
37.5
  0
INSERT
  8
1
  2
B7
 10
19.75
 20
12
  0
INSERT
  8
1
  2
B8
 10
29.7502441406
 20
2.5
  0
INSERT
  8
1
  2
B9
 10
32.7502441406
 20
7
  0
INSERT
  8
1
  2
B10
 10
43.75
 20
49.5
  0
INSERT
  8
1
  2
B11
 10
30.25
 20
27
  0
INSERT
  8
1
  2
B12
 10
18.25
 20
49.5
  0
INSERT
  8
1
  2
B13
 10
33.25
 20
22.5
  0
INSERT
  8
1
  2
B14
 10
7.875
 20
66
  0
INSERT
  8
1
  2
B15
 10
48.8125
 20
65.3125
  0
INSERT
  8
1
  2
B16
 10
36.3125
 20
42.8125
  0
INSERT
  8
1
  2
B17
 10
9.3125
 20
37.3125
  0
INSERT
  8
1
  2
B18
 10
47.3125
 20
36.5625
  0
INSERT
  8
1
  2
B19
 10
86.25
 20
57
  0
INSERT
  8
1
  2
B20
 10
126.75
 20
57
  0
INSERT
  8
1
  2
B21
 10
101.189453125
 20
37.5
  0
INSERT
  8
1
  2
B22
 10
126.689453125
 20
37.5
  0
INSERT
  8
1
  2
B23
 10
102.25
 20
12
  0
INSERT
  8
1
  2
B24
 10
112.250244141
 20
2.5
  0
INSERT
  8
1
  2
B25
 10
115.250244141
 20
7
  0
INSERT
  8
1
  2
B26
 10
126.25
 20
49.5
  0
INSERT
  8
1
  2
B27
 10
112.75
 20
27
  0
INSERT
  8
1
  2
B28
 10
100.75
 20
49.5
  0
INSERT
  8
1
  2
B29
 10
115.75
 20
22.5
  0
INSERT
  8
1
  2
B30
 10
90.9375
 20
66.5625
  0
INSERT
  8
1
  2
B31
 10
131.875
 20
65.875
  0
INSERT
  8
1
  2
B32
 10
102.75
 20
45.125
  0
INSERT
  8
1
  2
B33
 10
92.375
 20
37.875
  0
INSERT
  8
1
  2
B34
 10
130.375
 20
37.125
  0
INSERT
  8
1
  2
B35
 10
106
 20
34.5002441406
  0
INSERT
  8
1
  2
B36
 10
116.5
 20
34.5002441406
  0
INSERT
  8
1
  2
B37
 10
112.75
 20
30
  0
INSERT
  8
1
  2
B38
 10
121.0625
 20
44.8125
  0
INSERT
  8
1
  2
B1
 10
-47.5
 20
0
  0
ENDSEC
  0
EOF
